<svg width="476" height="605" viewBox="0 0 476 605" fill="none" xmlns="http://www.w3.org/2000/svg">
<path d="M438.546 427.813C415.395 416.548 398.352 392.456 407.442 366.613C417.336 366.566 427.231 366.566 437.126 366.518C437.789 366.518 442.097 365.193 440.487 363.963C432.486 357.952 423.964 352.934 414.543 349.432C410.424 347.917 406.163 346.971 401.997 345.693C400.293 345.125 398.588 344.557 396.884 343.989C397.405 341.906 397.926 339.824 398.446 337.788C400.056 336.226 400.814 334.428 401.145 332.109C401.997 331.872 402.944 331.635 403.417 331.115C407.536 326.618 408.862 324.536 409.146 317.957C409.667 306.218 409.856 292.918 420.13 287.523C422.071 287.191 423.964 286.86 425.716 286.245C426.521 285.961 427.279 285.629 427.989 285.251C428.888 285.156 429.788 285.061 430.829 285.014C431.965 284.967 434.096 284.588 434.38 283.168C434.759 281.322 434.948 279.429 434.901 277.63C435.848 274.08 434.522 270.152 429.93 266.839C421.787 260.875 411.371 264.756 403.228 268.59C394.138 272.897 377.237 280.281 373.354 266.981C371.697 261.301 375.248 254.391 378.846 250.415C386.563 241.942 398.588 240.617 407.442 233.991C416.532 227.175 417.289 214.916 405.216 210.136C396.979 206.87 387.084 210.846 380.503 215.958C373.733 221.211 369.898 231.956 363.128 236.357C358.346 239.481 351.387 239.197 349.067 233.281C348.546 231.956 348.404 230.299 348.452 228.595C352.429 216.052 365.637 203.699 369.046 192.339C371.792 183.204 371.413 173.738 375.958 165.029C380.409 156.509 386.942 149.315 392.292 141.411C399.299 130.998 406.826 112.539 393.901 103.072C386.611 97.7239 376.337 99.9012 368.999 104.066C352.429 113.391 352.855 134.311 348.12 150.498C346.937 154.474 345.516 158.497 343.433 162.095C342.013 164.508 339.362 169.052 337.231 169.952C334.911 169.81 332.544 169.668 330.225 169.526C324.307 171.513 322.081 170.377 323.549 166.165C322.413 159.349 338.226 150.214 341.966 143.872C350.44 129.483 352.76 106.291 352.571 89.9616C352.429 77.8921 343.907 71.9283 332.592 75.5729C317.726 80.3533 324.638 93.4641 324.685 105.202C324.733 116.136 317.158 124.419 311.334 132.844C305.653 141.079 301.203 159.491 292.208 164.414C289.983 164.792 287.757 165.171 285.532 165.597C280.798 168.721 278.383 168.248 278.241 164.272C276.679 160.675 278.431 162.379 278.431 158.024C278.478 154.474 278.999 151.256 276.442 148.274C274.028 145.434 270.43 144.629 266.926 145.292C264.938 145.671 262.618 146.57 261.245 148.084C259.635 149.93 259.778 151.918 259.257 154.096C258.973 155.231 258.689 162.047 256.606 163.798C250.735 168.768 243.728 168.011 239.278 162.899C225.312 146.901 223.891 123.803 223.56 103.546C223.134 79.6907 223.228 55.9777 230.283 32.9747C233.313 23.1298 242.781 -1.5772 224.365 0.0793993C214.233 0.978694 206.8 9.40367 205.759 19.2013C204.433 31.7914 209.357 44.3815 208.41 57.1136C207.463 69.8931 203.96 82.2939 202.113 94.9314C200.267 107.805 201.024 119.212 205.333 131.471C207.226 136.914 211.819 146.665 207.179 151.871C203.486 155.989 190.277 157.503 185.164 156.604C182.04 156.083 178.442 155.089 175.932 153.054C168.215 146.854 168.263 129.578 154.391 136.63C148.331 139.707 145.301 146.807 141.514 152.013C139.052 155.421 136.685 157.503 136.637 161.763C136.59 164.13 137.774 166.544 138.91 169.052C135.406 169.715 131.903 170.378 128.4 171.04C127.879 169.573 127.358 168.153 126.743 166.733C125.796 165.55 125.417 163.467 124.517 162.284C122.955 160.343 121.345 158.923 118.931 158.024C113.818 156.131 107.284 158.261 104.349 162.899C100.988 168.248 103.166 172.507 106.48 177.004C108.137 179.276 115.191 183.63 115.191 186.707C110.409 188.505 105.675 190.304 100.893 192.15C99.8989 190.825 98.9047 189.547 97.8158 188.316C93.5548 184.956 90.5722 181.784 85.5538 179.323C81.2456 177.241 72.0136 172.176 67.1372 176.625C63.2551 180.175 65.7643 184.151 68.9836 186.991C72.3923 190.02 77.4581 191.393 81.577 193.144C84.7963 194.516 88.7258 195.747 91.7085 197.593C92.7027 198.208 93.6969 198.824 94.6911 199.486C103.166 206.491 102.124 209.615 91.4717 208.905C81.4823 210.798 83.0446 211.603 78.6417 204.551C77.3161 202.468 76.2745 200.196 74.9962 198.114C72.345 193.806 69.173 189.405 64.628 186.896C56.1536 182.258 38.021 187.322 48.5786 198.35C51.0405 200.906 68.0841 207.817 65.5749 212.881C63.6338 213.733 61.7401 214.585 59.799 215.39C56.0589 219.223 53.3603 219.081 51.7033 214.869C50.0463 213.307 48.768 210.42 47.3003 208.574C40.6249 199.96 31.8664 192.813 21.8296 188.505C16.6218 186.281 9.66234 183.678 4.35988 187.275C-1.27399 191.109 -0.989926 198.398 2.60817 203.462C8.14735 211.319 20.2199 214.064 28.4577 217.567C35.5118 220.549 42.8974 223.578 48.1525 229.352C51.2298 232.713 53.455 236.405 54.0705 240.948C55.4434 250.699 47.3477 260.496 35.2751 253.965C28.505 250.32 22.7765 243.315 14.1126 247.338C8.76281 249.799 7.20048 254.438 10.1831 259.597C15.4856 268.732 29.5939 267.785 38.4945 268.259C48.2946 268.827 55.9168 271.572 62.1188 279.665C63.6338 281.653 64.9594 283.594 66.3797 285.487C63.0657 292.208 62.5923 298.267 64.7227 305.508C59.7043 304.846 54.7806 301.864 49.7622 304.704C43.7496 308.112 43.8443 316.063 50.3777 318.903C50.9931 319.187 57.7159 319.471 57.7632 319.518C64.2493 325.435 51.0405 328.464 48.626 330.973C44.2704 335.469 36.6481 345.551 47.6318 348.533C49.0994 348.911 51.3245 348.58 52.7922 348.107C58.0946 346.403 56.2482 345.077 63.8232 345.125C81.0562 345.267 60.8406 358.898 56.4376 363.442C54.1651 365.809 51.6086 368.317 51.2772 371.772C50.4724 380.008 58 381.049 64.1546 379.629C67.1372 378.919 69.3624 376.647 72.1556 375.89C80.9615 373.571 83.9915 375.795 87.1635 378.541C88.3944 382.28 88.7732 386.161 88.7732 390.799C88.7732 393.876 88.0157 396.858 89.0572 399.84C90.1935 403.058 92.1819 405.756 95.78 406.371C98.8573 406.892 101.651 405.472 103.97 403.626C105.959 402.017 106.669 399.366 108.468 397.852C115.143 392.125 120.967 395.627 119.878 404.952C118.079 420.855 93.3181 421.896 93.4128 438.651C93.4602 449.396 104.586 451.336 113.06 449.064C116.706 448.07 119.878 446.13 123.429 444.946C128.021 443.432 133.323 443.953 137.584 442.343C140.804 441.113 142.177 440.687 144.354 437.799C146.816 434.534 149.231 419.009 156.616 438.888C157.847 442.201 154.581 448.023 154.628 451.81C154.628 455.88 155.338 459.809 158.51 462.648C166.653 469.985 174.891 461.465 181.566 457.016C183.791 454.791 186.727 453.655 190.372 453.655C191.224 452.851 192.076 452.236 192.881 451.762C193.023 454.744 194.065 457.442 195.627 460.518C197.805 464.826 201.356 468.565 202.965 473.109C205.096 479.214 204.007 485.604 202.965 491.852C198.894 515.991 195.343 540.224 192.834 564.6C191.887 573.83 184.88 598.489 196.432 603.98C205.427 608.287 214.233 597.969 218.068 591.437C226.921 576.48 226.258 560.53 221.808 544.295C218.589 532.415 215.322 521.529 216.364 508.938C217.311 497.579 220.814 486.551 224.696 475.901C225.596 473.44 226.448 469.653 227.915 467.571C228.436 466.34 228.91 465.11 229.43 463.832C232.744 464.163 236.011 464.542 239.325 464.873C244.296 469.133 241.124 478.741 239.657 483.947C237.242 492.372 235.632 500.513 236.911 509.27C238 516.937 242.166 527.776 251.824 522.901C263.66 516.937 258.026 499.425 255.659 490.101C253.481 481.439 249.362 469.227 253.339 460.613C254.002 459.146 266.879 449.964 268.962 450.958C270.524 451.715 271.708 456.448 272.134 458.01C273.412 462.98 272.276 468.375 272.56 473.487C273.554 492.562 297.936 532.557 320.756 512.488C332.402 502.217 327.431 484.799 324.733 471.878C323.076 463.974 316.874 449.064 319.525 441.397C321.75 435.007 328.662 430.936 334.722 429.327C337.657 428.57 340.829 427.955 343.528 426.535C346.842 424.831 348.026 421.849 350.724 420.003C359.435 413.944 364.122 423.931 371.319 427.623C387.179 435.717 406.779 430.51 421.503 441.633C433.196 450.532 439.682 466.198 455.827 467.666C464.727 468.47 476.279 464.447 475.995 453.655C475.758 436.001 450.193 433.492 438.546 427.813Z" fill="#FF00E5"/>
</svg>
