<svg width="274" height="165" viewBox="0 0 274 165" fill="none" xmlns="http://www.w3.org/2000/svg">
<g clip-path="url(#clip0)">
<path d="M17.9671 120.812L16.3218 114.324C13.4042 113.088 10.4193 112.017 7.38118 111.117L7.17342 114.133L6.331 110.811C2.56322 109.735 0 109.262 0 109.262C0 109.262 3.46232 122.423 10.7243 132.486L19.1861 133.972L12.6123 134.919C13.5262 136.018 14.5083 137.058 15.5528 138.034C26.1169 147.837 37.8834 152.334 41.8339 148.08C45.7844 143.825 40.4231 132.429 29.8589 122.627C26.584 119.588 22.4699 117.149 18.3517 115.23L17.9671 120.812Z" fill="#E6E6E6"/>
<path d="M33.6159 113.766L35.5619 107.362C33.7035 104.797 31.7018 102.338 29.5664 99.9976L27.8295 102.471L28.8259 99.1924C26.1567 96.3248 24.2074 94.5947 24.2074 94.5947C24.2074 94.5947 20.3657 107.651 21.3793 120.017L27.8547 125.662L21.7373 123.076C21.9514 124.489 22.2541 125.887 22.6438 127.262C26.6185 141.112 34.3656 151.042 39.9474 149.441C45.5292 147.841 46.832 135.315 42.8572 121.465C41.625 117.171 39.3641 112.958 36.8312 109.187L33.6159 113.766Z" fill="#E6E6E6"/>
<path d="M274 150.405H0.0244141V151.096H274V150.405Z" fill="#3F3D56"/>
<path d="M43.3111 78.8383C43.3111 78.8383 41.1775 104.484 40.7194 109.979C40.4053 113.424 39.6351 116.812 38.4289 120.054C38.4289 120.054 37.5127 121.886 37.5127 123.717V147.073C37.5127 147.073 35.6804 147.073 36.1385 148.904C36.5966 150.736 37.0547 153.942 37.0547 153.942H43.9261C43.9261 153.942 43.468 152.568 44.8423 152.11C46.2166 151.652 44.8423 147.988 44.8423 147.988L52.1718 120.512L63.1662 97.6145C63.1662 97.6145 69.5795 118.222 70.9538 120.512C70.9538 120.512 75.9929 146.157 76.9091 148.446C77.8253 150.736 78.2834 150.736 77.8253 151.652C77.3672 152.568 77.3672 153.484 77.8253 153.942C78.2834 154.4 86.9872 153.942 86.9872 153.942L84.6967 121.428L80.5739 82.5023L59.5014 76.0911L43.3111 78.8383Z" fill="#2F2E41"/>
<path d="M42.0935 150.278C42.0935 150.278 39.803 142.035 36.1382 148.446C32.4735 154.858 32.4735 157.147 32.4735 157.147C32.4735 157.147 26.5182 165.848 34.7639 164.932C43.0097 164.017 41.1773 159.895 41.1773 159.895C41.1773 159.895 44.384 158.063 44.384 156.689C44.384 155.316 42.0935 150.278 42.0935 150.278Z" fill="#2F2E41"/>
<path d="M79.1997 149.362C79.1997 149.362 81.4901 141.119 85.1549 147.531C88.8197 153.942 88.8197 156.232 88.8197 156.232C88.8197 156.232 94.7749 164.932 86.5292 164.017C78.2835 163.101 80.1159 158.979 80.1159 158.979C80.1159 158.979 76.9092 157.147 76.9092 155.774C76.9092 154.4 79.1997 149.362 79.1997 149.362Z" fill="#2F2E41"/>
<path d="M57.669 17.0162C57.669 17.0162 58.5852 22.9695 55.8367 24.3433C53.0881 25.7171 61.7919 30.7545 64.0824 30.7545C66.3729 30.7545 70.4958 26.1751 70.4958 26.1751C70.4958 26.1751 68.2053 19.3059 68.6634 17.9321L57.669 17.0162Z" fill="#A0616A"/>
<path d="M62.7079 21.5956C68.0209 21.5956 72.328 17.29 72.328 11.9788C72.328 6.66753 68.0209 2.36192 62.7079 2.36192C57.3949 2.36192 53.0879 6.66753 53.0879 11.9788C53.0879 17.29 57.3949 21.5956 62.7079 21.5956Z" fill="#A0616A"/>
<path d="M81.4899 31.6704L70.0378 24.7343C70.0378 24.7343 63.5219 32.1284 56.4725 23.8853L44.384 27.091L46.2164 58.2312C46.2164 58.2312 43.4678 70.5958 44.384 72.8855C45.3002 75.1752 42.0935 76.0911 43.0097 76.549C43.9259 77.007 43.0097 80.2126 43.0097 80.2126C43.0097 80.2126 60.8755 89.3715 80.5737 82.5023L78.7413 76.549C78.9907 75.7708 79.0374 74.9419 78.8771 74.1406C78.7168 73.3393 78.3547 72.5921 77.8251 71.9696C77.8251 71.9696 79.6575 69.2219 77.367 66.9322C77.367 66.9322 78.2832 62.8107 75.9927 60.9789L75.5346 54.5677L76.9089 51.3621L81.4899 31.6704Z" fill="#CFCCE0"/>
<path d="M57.7847 7.5134C57.7847 7.5134 56.6378 9.99461 61.2254 9.00213C61.2254 9.00213 62.9458 9.99462 62.9458 8.50589C62.9458 8.50589 65.2396 10.9871 65.813 9.49837C66.3865 8.00964 67.5334 9.99461 67.5334 9.99461L68.6803 7.5134L69.8272 9.00213H73.8413C73.8413 9.00213 74.9882 -0.92272 61.2254 0.0697667C47.4625 1.06225 54.2332 16.7872 54.2332 16.7872C54.2332 16.7872 54.344 13.9646 55.4909 15.4533C56.6378 16.942 57.7847 7.5134 57.7847 7.5134Z" fill="#2F2E41"/>
<path d="M85.6127 49.9882L86.0708 59.6051C86.0708 59.6051 87.9032 77.4649 84.2384 85.25V89.3715C84.2384 89.3715 83.3223 99.9043 78.7413 99.4463C74.1603 98.9884 80.1156 84.3341 80.1156 84.3341L79.1994 64.1845L78.2832 52.7359L85.6127 49.9882Z" fill="#A0616A"/>
<path d="M76.451 32.1284L81.0207 31.3862C84.3126 34.548 86.555 38.6431 87.4453 43.1191C88.8196 50.4462 89.2777 51.82 89.2777 51.82L78.2834 54.5677L72.3281 43.1191L76.451 32.1284Z" fill="#CFCCE0"/>
<path d="M129.067 26.9021H56.7749V62.8015H129.067V26.9021Z" fill="white"/>
<path d="M64.6687 29.061C62.8115 27.9445 60.572 28.0297 59.7207 28.115C60.0449 28.9063 61.0177 30.9246 62.8749 32.0416C64.7367 33.161 66.9732 33.0732 67.8232 32.9884C67.4992 32.1975 66.5263 30.1783 64.6687 29.061Z" fill="#6C63FF"/>
<path d="M73.396 51.2163H61.788C61.4448 51.2159 61.1048 51.2832 60.7876 51.4142C60.4704 51.5453 60.1821 51.7375 59.9393 51.98C59.6965 52.2225 59.5039 52.5105 59.3724 52.8274C59.241 53.1444 59.1733 53.4841 59.1733 53.8272C59.1733 54.1703 59.241 54.5101 59.3724 54.827C59.5039 55.144 59.6965 55.432 59.9393 55.6744C60.1821 55.9169 60.4704 56.1092 60.7876 56.2402C61.1048 56.3713 61.4448 56.4385 61.788 56.4382H73.396C73.7392 56.4385 74.0792 56.3713 74.3964 56.2402C74.7136 56.1092 75.0018 55.9169 75.2447 55.6744C75.4875 55.432 75.6801 55.144 75.8116 54.827C75.943 54.5101 76.0107 54.1703 76.0107 53.8272C76.0107 53.4841 75.943 53.1444 75.8116 52.8274C75.6801 52.5105 75.4875 52.2225 75.2447 51.98C75.0018 51.7375 74.7136 51.5453 74.3964 51.4142C74.0792 51.2832 73.7392 51.2159 73.396 51.2163Z" fill="#6C63FF"/>
<path d="M125.961 23.6564H60.8784C60.1214 23.6564 59.3717 23.8055 58.6722 24.0951C57.9728 24.3847 57.3372 24.8092 56.8018 25.3444C56.2665 25.8796 55.8419 26.5149 55.5521 27.2141C55.2624 27.9134 55.1133 28.6628 55.1133 29.4196V61.1187C55.1133 62.6472 55.7207 64.1131 56.8019 65.1939C57.883 66.2747 59.3494 66.8819 60.8784 66.8819H125.961C127.49 66.8819 128.956 66.2747 130.038 65.1939C131.119 64.1131 131.726 62.6472 131.726 61.1187V29.4196C131.726 28.6628 131.577 27.9134 131.287 27.2141C130.998 26.5149 130.573 25.8796 130.038 25.3444C129.502 24.8092 128.867 24.3847 128.167 24.0951C127.468 23.8055 126.718 23.6564 125.961 23.6564ZM59.2682 27.5878C59.3967 27.5646 62.4442 27.0461 64.9678 28.5641C67.4912 30.0817 68.4607 33.0165 68.5006 33.1406L68.6026 33.457L68.2752 33.5151C67.808 33.588 67.3357 33.6227 66.8629 33.6188C65.3629 33.6475 63.8826 33.2745 62.5755 32.5386C60.0521 31.0212 59.0827 28.0864 59.0427 27.9623L58.9407 27.6459L59.2682 27.5878ZM73.3959 57.0184H61.7879C60.9413 57.0184 60.1293 56.6822 59.5307 56.0837C58.932 55.4853 58.5957 54.6736 58.5957 53.8272C58.5957 52.9809 58.932 52.1692 59.5307 51.5708C60.1293 50.9723 60.9413 50.6361 61.7879 50.6361H73.3959C74.2425 50.6361 75.0545 50.9723 75.6531 51.5708C76.2518 52.1692 76.5881 52.9809 76.5881 53.8272C76.5881 54.6736 76.2518 55.4853 75.6531 56.0837C75.0545 56.6822 74.2425 57.0184 73.3959 57.0184ZM126.212 56.4382C126.21 57.3606 125.842 58.2445 125.189 58.8968C124.537 59.5491 123.653 59.9167 122.73 59.9194H114.024C113.101 59.9167 112.217 59.5491 111.565 58.8968C110.912 58.2445 110.544 57.3606 110.542 56.4382V51.2163C110.544 50.2938 110.912 49.4099 111.565 48.7577C112.217 48.1054 113.101 47.7377 114.024 47.735H122.73C123.653 47.7377 124.537 48.1054 125.189 48.7577C125.842 49.4099 126.21 50.2938 126.212 51.2163V56.4382Z" fill="#6C63FF"/>
<path d="M116.781 55.4228H113.008C112.739 55.4228 112.481 55.5298 112.29 55.7202C112.1 55.9106 111.993 56.1689 111.993 56.4382C111.993 56.7075 112.1 56.9657 112.29 57.1561C112.481 57.3466 112.739 57.4535 113.008 57.4535H116.781C117.05 57.4535 117.309 57.3466 117.499 57.1561C117.69 56.9657 117.797 56.7075 117.797 56.4382C117.797 56.1689 117.69 55.9106 117.499 55.7202C117.309 55.5298 117.05 55.4228 116.781 55.4228ZM116.781 56.8733H113.008C112.951 56.8735 112.894 56.8623 112.841 56.8405C112.788 56.8187 112.74 56.7867 112.7 56.7463C112.659 56.7059 112.627 56.6578 112.605 56.605C112.583 56.5521 112.572 56.4954 112.572 56.4382C112.572 56.3809 112.583 56.3242 112.605 56.2714C112.627 56.2185 112.659 56.1705 112.7 56.1301C112.74 56.0896 112.788 56.0576 112.841 56.0358C112.894 56.014 112.951 56.0029 113.008 56.003H116.781C116.896 56.0033 117.007 56.0493 117.088 56.1309C117.169 56.2125 117.215 56.323 117.215 56.4382C117.215 56.5534 117.169 56.6639 117.088 56.7455C117.007 56.827 116.896 56.873 116.781 56.8733Z" fill="#6C63FF"/>
<path d="M123.746 55.4228H119.973C119.704 55.4228 119.445 55.5298 119.255 55.7202C119.065 55.9106 118.958 56.1689 118.958 56.4382C118.958 56.7075 119.065 56.9657 119.255 57.1561C119.445 57.3466 119.704 57.4535 119.973 57.4535H123.746C124.015 57.4535 124.274 57.3466 124.464 57.1561C124.655 56.9657 124.762 56.7075 124.762 56.4382C124.762 56.1689 124.655 55.9106 124.464 55.7202C124.274 55.5298 124.015 55.4228 123.746 55.4228ZM123.746 56.8733H119.973C119.916 56.8735 119.859 56.8623 119.806 56.8405C119.753 56.8187 119.705 56.7867 119.665 56.7463C119.624 56.7059 119.592 56.6578 119.57 56.605C119.548 56.5521 119.537 56.4954 119.537 56.4382C119.537 56.3809 119.548 56.3242 119.57 56.2714C119.592 56.2185 119.624 56.1705 119.665 56.1301C119.705 56.0896 119.753 56.0576 119.806 56.0358C119.859 56.014 119.916 56.0029 119.973 56.003H123.746C123.861 56.0033 123.971 56.0493 124.053 56.1309C124.134 56.2125 124.18 56.323 124.18 56.4382C124.18 56.5534 124.134 56.6639 124.053 56.7455C123.971 56.827 123.861 56.873 123.746 56.8733Z" fill="#6C63FF"/>
<path d="M116.781 52.8119H113.008C112.739 52.8119 112.481 52.9188 112.29 53.1093C112.1 53.2997 111.993 53.5579 111.993 53.8272C111.993 54.0965 112.1 54.3548 112.29 54.5452C112.481 54.7356 112.739 54.8426 113.008 54.8426H116.781C117.05 54.8426 117.309 54.7356 117.499 54.5452C117.69 54.3548 117.797 54.0965 117.797 53.8272C117.797 53.5579 117.69 53.2997 117.499 53.1093C117.309 52.9188 117.05 52.8119 116.781 52.8119ZM116.781 54.2624H113.008C112.951 54.2624 112.895 54.2511 112.842 54.2293C112.789 54.2074 112.741 54.1753 112.701 54.1349C112.66 54.0945 112.628 54.0465 112.606 53.9937C112.584 53.941 112.573 53.8844 112.573 53.8272C112.573 53.7701 112.584 53.7135 112.606 53.6607C112.628 53.6079 112.66 53.5599 112.701 53.5195C112.741 53.4791 112.789 53.4471 112.842 53.4252C112.895 53.4033 112.951 53.3921 113.008 53.3921H116.781C116.838 53.3921 116.895 53.4033 116.948 53.4252C117 53.4471 117.048 53.4791 117.089 53.5195C117.129 53.5599 117.161 53.6079 117.183 53.6607C117.205 53.7135 117.216 53.7701 117.216 53.8272C117.216 53.8844 117.205 53.941 117.183 53.9937C117.161 54.0465 117.129 54.0945 117.089 54.1349C117.048 54.1753 117 54.2074 116.948 54.2293C116.895 54.2511 116.838 54.2624 116.781 54.2624Z" fill="#6C63FF"/>
<path d="M123.746 52.8119H119.973C119.704 52.8119 119.445 52.9188 119.255 53.1093C119.065 53.2997 118.958 53.5579 118.958 53.8272C118.958 54.0965 119.065 54.3548 119.255 54.5452C119.445 54.7356 119.704 54.8426 119.973 54.8426H123.746C124.015 54.8426 124.274 54.7356 124.464 54.5452C124.655 54.3548 124.762 54.0965 124.762 53.8272C124.762 53.5579 124.655 53.2997 124.464 53.1093C124.274 52.9188 124.015 52.8119 123.746 52.8119ZM123.746 54.2624H119.973C119.916 54.2624 119.859 54.2511 119.807 54.2293C119.754 54.2074 119.706 54.1753 119.665 54.1349C119.625 54.0945 119.593 54.0465 119.571 53.9937C119.549 53.941 119.538 53.8844 119.538 53.8272C119.538 53.7701 119.549 53.7135 119.571 53.6607C119.593 53.6079 119.625 53.5599 119.665 53.5195C119.706 53.4791 119.754 53.4471 119.807 53.4252C119.859 53.4033 119.916 53.3921 119.973 53.3921H123.746C123.803 53.3921 123.86 53.4033 123.912 53.4252C123.965 53.4471 124.013 53.4791 124.054 53.5195C124.094 53.5599 124.126 53.6079 124.148 53.6607C124.17 53.7135 124.181 53.7701 124.181 53.8272C124.181 53.8844 124.17 53.941 124.148 53.9937C124.126 54.0465 124.094 54.0945 124.054 54.1349C124.013 54.1753 123.965 54.2074 123.912 54.2293C123.86 54.2511 123.803 54.2624 123.746 54.2624Z" fill="#6C63FF"/>
<path d="M116.781 50.2009H113.008C112.739 50.2009 112.481 50.3079 112.29 50.4983C112.1 50.6887 111.993 50.947 111.993 51.2163C111.993 51.4856 112.1 51.7439 112.29 51.9343C112.481 52.1247 112.739 52.2317 113.008 52.2317H116.781C117.05 52.2317 117.309 52.1247 117.499 51.9343C117.69 51.7439 117.797 51.4856 117.797 51.2163C117.797 50.947 117.69 50.6887 117.499 50.4983C117.309 50.3079 117.05 50.2009 116.781 50.2009ZM116.781 51.6515H113.008C112.951 51.6516 112.894 51.6405 112.841 51.6187C112.788 51.5969 112.74 51.5648 112.7 51.5244C112.659 51.484 112.627 51.436 112.605 51.3831C112.583 51.3302 112.572 51.2735 112.572 51.2163C112.572 51.1591 112.583 51.1024 112.605 51.0495C112.627 50.9966 112.659 50.9486 112.7 50.9082C112.74 50.8678 112.788 50.8357 112.841 50.8139C112.894 50.7921 112.951 50.781 113.008 50.7811H116.781C116.896 50.7814 117.007 50.8274 117.088 50.909C117.169 50.9906 117.215 51.1011 117.215 51.2163C117.215 51.3315 117.169 51.442 117.088 51.5236C117.007 51.6052 116.896 51.6511 116.781 51.6515Z" fill="#6C63FF"/>
<path d="M123.746 50.2009H119.973C119.704 50.2009 119.445 50.3079 119.255 50.4983C119.065 50.6887 118.958 50.947 118.958 51.2163C118.958 51.4856 119.065 51.7439 119.255 51.9343C119.445 52.1247 119.704 52.2317 119.973 52.2317H123.746C124.015 52.2317 124.274 52.1247 124.464 51.9343C124.655 51.7439 124.762 51.4856 124.762 51.2163C124.762 50.947 124.655 50.6887 124.464 50.4983C124.274 50.3079 124.015 50.2009 123.746 50.2009ZM123.746 51.6515H119.973C119.916 51.6516 119.859 51.6405 119.806 51.6187C119.753 51.5969 119.705 51.5648 119.665 51.5244C119.624 51.484 119.592 51.436 119.57 51.3831C119.548 51.3302 119.537 51.2735 119.537 51.2163C119.537 51.1591 119.548 51.1024 119.57 51.0495C119.592 50.9966 119.624 50.9486 119.665 50.9082C119.705 50.8678 119.753 50.8357 119.806 50.8139C119.859 50.7921 119.916 50.781 119.973 50.7811H123.746C123.861 50.7814 123.971 50.8274 124.053 50.909C124.134 50.9906 124.18 51.1011 124.18 51.2163C124.18 51.3315 124.134 51.442 124.053 51.5236C123.971 51.6052 123.861 51.6511 123.746 51.6515Z" fill="#6C63FF"/>
<path d="M37.5127 44.4929C37.5127 44.4929 33.3898 61.8948 38.4289 61.8948C43.4679 61.8948 55.3785 42.2032 55.3785 42.2032C55.3785 42.2032 67.7471 35.7919 62.708 33.5022C57.6689 31.2125 51.2556 37.1658 51.2556 37.1658L43.8555 47.4364L43.4679 42.2032L37.5127 44.4929Z" fill="#A0616A"/>
<path d="M47.1326 29.8386L44.384 27.091C44.384 27.091 38.8869 30.2966 38.4288 33.5022C37.9707 36.7078 35.6802 46.7826 35.6802 46.7826L44.155 47.4695L46.9035 43.348L47.1326 29.8386Z" fill="#CFCCE0"/>
<path d="M177.338 23.3242C176.993 22.3056 172.666 18.8428 175.318 18.2608L177.492 21.1596L187.491 11.1647L188.496 12.1699L177.338 23.3242Z" fill="#6C63FF"/>
<path d="M177.338 57.3112C176.993 56.2925 172.666 52.8298 175.318 52.2478L177.492 55.1466L187.491 45.1516L188.496 46.1569L177.338 57.3112Z" fill="#6C63FF"/>
<path d="M177.338 91.7837C176.993 90.765 172.666 87.3023 175.318 86.7203L177.492 89.6191L187.491 79.6241L188.496 80.6294L177.338 91.7837Z" fill="#6C63FF"/>
<path d="M207.623 22.2757C209.327 22.2757 210.709 20.8948 210.709 19.1914C210.709 17.488 209.327 16.1071 207.623 16.1071C205.919 16.1071 204.538 17.488 204.538 19.1914C204.538 20.8948 205.919 22.2757 207.623 22.2757Z" fill="#3F3D56"/>
<path d="M268.866 18.883H219.193V19.4998H268.866V18.883Z" fill="#3F3D56"/>
<path d="M207.623 56.2627C209.327 56.2627 210.709 54.8818 210.709 53.1784C210.709 51.475 209.327 50.0941 207.623 50.0941C205.919 50.0941 204.538 51.475 204.538 53.1784C204.538 54.8818 205.919 56.2627 207.623 56.2627Z" fill="#3F3D56"/>
<path d="M268.866 52.8699H219.193V53.4868H268.866V52.8699Z" fill="#3F3D56"/>
<path d="M207.623 90.7352C209.327 90.7352 210.709 89.3543 210.709 87.6509C210.709 85.9475 209.327 84.5666 207.623 84.5666C205.919 84.5666 204.538 85.9475 204.538 87.6509C204.538 89.3543 205.919 90.7352 207.623 90.7352Z" fill="#3F3D56"/>
<path d="M268.866 87.3424H219.193V87.9592H268.866V87.3424Z" fill="#3F3D56"/>
<path d="M185.131 96.3793H169.704V80.6494H180.194V81.2663H170.321V95.7625H184.514V88.6686H185.131V96.3793Z" fill="#3F3D56"/>
<path d="M185.131 61.8353H169.704V46.1055H180.194V46.7223H170.321V61.2185H184.514V54.1246H185.131V61.8353Z" fill="#3F3D56"/>
<path d="M185.131 26.6744H169.704V10.9446H180.194V11.5614H170.321V26.0576H184.514V18.9637H185.131V26.6744Z" fill="#3F3D56"/>
</g>
<defs>
<clipPath id="clip0">
<rect width="274" height="165" fill="white"/>
</clipPath>
</defs>
</svg>
