<svg width="227" height="213" viewBox="0 0 227 213" fill="none" xmlns="http://www.w3.org/2000/svg">
<g clip-path="url(#clip0)">
<path d="M46.2027 151.334C46.2027 151.334 18.1197 152.79 24.6608 161.66C31.202 170.529 48.3896 156.457 48.3896 156.457L46.2027 151.334Z" fill="#FFB8B8"/>
<path d="M97.9548 66.8527L92.2387 68.2864C92.2387 68.2864 88.9043 78.3225 86.5226 87.4029C84.1408 96.4832 79.3774 123.724 79.3774 123.724L42.4478 149.691L46.8524 159.576L96.0493 140.123L107.005 96.9611L97.9548 66.8527Z" fill="#575A89"/>
<path opacity="0.2" d="M92.5766 84.6671L94.7071 129.428L90.2615 142.736L103.284 133.155L92.5766 84.6671Z" fill="black"/>
<path d="M84.8552 164.108C84.8552 164.108 78.6627 180.835 77.71 192.305C76.7573 203.774 75.8047 212.855 75.8047 212.855H104.862L110.578 204.252V212.855H144.398C144.398 212.855 153.925 181.791 150.114 177.967C146.304 174.144 110.101 157.895 110.101 157.895L84.8552 164.108Z" fill="#2F2E41"/>
<path d="M29.4885 212.419H197.626V213H29.4885V212.419Z" fill="#3F3D56"/>
<path d="M121.295 48.692C111.298 48.692 103.194 40.5612 103.194 30.5313C103.194 20.5015 111.298 12.3707 121.295 12.3707C131.292 12.3707 139.396 20.5015 139.396 30.5313C139.396 40.5612 131.292 48.692 121.295 48.692Z" fill="#FFB8B8"/>
<path d="M135.11 38.1779L136.539 59.2061L118.437 83.5796L109.387 60.6398C109.387 60.6398 117.485 55.3827 112.721 44.3908L135.11 38.1779Z" fill="#FFB8B8"/>
<path d="M82.2367 168.17C82.2367 172.472 94.1453 179.162 94.1453 179.162V181.552L98.9087 183.941L109.388 162.914L112.244 185.852C112.244 185.852 133.205 189.199 139.872 185.852C146.543 182.507 149.877 183.941 159.404 180.596C168.93 177.252 155.592 132.326 155.592 132.326L165.119 63.0294L144.306 52.5885L143.209 52.0368L140.347 51.5084L135.96 50.6954L121.296 60.6398L120.115 66.8532L119.389 70.6771L115.581 66.3741L112.704 56.8827L92.2382 68.2875L97.9537 114.165C97.9537 114.165 82.2367 163.87 82.2367 168.17Z" fill="#575A89"/>
<path d="M152.258 182.985C152.258 182.985 130.346 200.668 140.826 204.013C151.305 207.359 157.021 185.853 157.021 185.853L152.258 182.985Z" fill="#FFB8B8"/>
<path d="M160.356 63.9852L165.119 63.0294C165.119 63.0294 172.264 66.8527 172.741 74.4993C173.217 82.1458 179.41 135.672 179.41 135.672L159.403 189.676L143.207 183.463L158.927 132.805L147.018 88.8366L160.356 63.9852Z" fill="#575A89"/>
<path d="M119.201 78.5696C118.242 78.5696 117.464 77.7896 117.464 76.8275C117.464 75.8654 118.242 75.0854 119.201 75.0854C120.16 75.0854 120.937 75.8654 120.937 76.8275C120.937 77.7896 120.16 78.5696 119.201 78.5696Z" fill="#2F2E41"/>
<path d="M119.201 89.8932C118.242 89.8932 117.464 89.1132 117.464 88.1511C117.464 87.189 118.242 86.409 119.201 86.409C120.16 86.409 120.937 87.189 120.937 88.1511C120.937 89.1132 120.16 89.8932 119.201 89.8932Z" fill="#2F2E41"/>
<path d="M109.361 164.512C108.402 164.512 107.625 163.732 107.625 162.77C107.625 161.808 108.402 161.028 109.361 161.028C110.32 161.028 111.098 161.808 111.098 162.77C111.098 163.732 110.32 164.512 109.361 164.512Z" fill="#2F2E41"/>
<path d="M136.578 11.9266L139.924 10.5826C139.924 10.5826 132.928 2.85462 123.194 3.52663L125.931 0.502638C125.931 0.502638 119.239 -2.18532 113.155 4.87061C109.957 8.57974 106.257 12.9397 103.95 17.851H100.367L101.862 21.155L96.6279 24.4589L102.001 23.8655C101.68 25.6748 101.631 27.5219 101.855 29.3457C102.085 31.1701 103.013 32.8333 104.443 33.9843C104.443 33.9843 108.593 25.3664 108.593 24.0224V27.3824C108.593 27.3824 111.939 24.3584 111.939 22.3425L113.764 24.6944H125.931L124.106 21.6705L131.103 22.6785L128.365 18.9825L139.197 34.2445C139.197 34.2445 145.399 16.9665 136.578 11.9266Z" fill="#2F2E41"/>
<path d="M28.9395 140.396C12.9567 140.396 9.15527e-05 127.396 9.15527e-05 111.361C9.15527e-05 95.3255 12.9567 82.3263 28.9395 82.3263C44.9223 82.3263 57.8789 95.3255 57.8789 111.361C57.8789 127.396 44.9223 140.396 28.9395 140.396Z" fill="#3F3D56"/>
<path opacity="0.1" d="M28.9393 136.331C15.1941 136.331 4.05138 125.151 4.05138 111.361C4.05138 97.5705 15.1941 86.3911 28.9393 86.3911C42.6845 86.3911 53.8271 97.5705 53.8271 111.361C53.8271 125.151 42.6845 136.331 28.9393 136.331Z" fill="black"/>
<path d="M27.9846 126.095V122.461C26.1535 122.425 24.2592 121.777 23.1543 120.878L23.9119 118.467C25.225 119.454 26.8174 119.996 28.4581 120.014C30.6997 120.014 32.2151 118.539 32.2151 116.488C32.2151 114.509 30.9838 113.285 28.6476 112.206C25.4273 110.767 23.4384 109.111 23.4384 105.981C23.4384 102.994 25.3011 100.727 28.2056 100.188V96.5532H30.163V100.044C31.6226 100.064 33.0462 100.5 34.2673 101.303L33.4779 103.678C32.3068 102.874 30.9191 102.447 29.5 102.454C27.0691 102.454 26.1535 104.11 26.1535 105.549C26.1535 107.42 27.3216 108.356 30.0684 109.651C33.3201 111.162 34.9619 113.033 34.9619 116.236C34.9619 119.079 33.2254 121.741 29.9736 122.353V126.095H27.9846Z" fill="#6C63FF"/>
<path opacity="0.2" d="M154.65 146.587L143.076 182.861L152.336 145.116L154.65 146.587Z" fill="black"/>
<path d="M213.661 75.7233H221.008C221.328 75.723 221.635 75.5952 221.861 75.368C222.088 75.1409 222.215 74.8329 222.215 74.5116V63.9159C222.215 63.5947 222.088 63.2867 221.861 63.0595C221.635 62.8324 221.328 62.7046 221.008 62.7042H213.661C213.341 62.7046 213.034 62.8324 212.807 63.0595C212.581 63.2867 212.453 63.5947 212.453 63.9159V74.5116C212.453 74.8329 212.581 75.1409 212.807 75.368C213.034 75.5952 213.341 75.723 213.661 75.7233ZM221.008 63.2849C221.174 63.2851 221.334 63.3517 221.452 63.47C221.57 63.5883 221.636 63.7486 221.637 63.9159V74.5116C221.636 74.6789 221.57 74.8393 221.452 74.9576C221.334 75.0759 221.174 75.1424 221.008 75.1426H213.661C213.494 75.1424 213.334 75.0759 213.216 74.9576C213.098 74.8393 213.032 74.6789 213.032 74.5116V63.9159C213.032 63.7486 213.098 63.5883 213.216 63.47C213.334 63.3517 213.494 63.2851 213.661 63.2849H221.008Z" fill="#3F3D56"/>
<path d="M200.242 75.7233H206.877C207.291 75.7228 207.689 75.5573 207.982 75.2632C208.275 74.969 208.44 74.5702 208.44 74.1543V52.756C208.44 52.34 208.275 51.9412 207.982 51.6471C207.689 51.353 207.291 51.1875 206.877 51.187H200.242C199.827 51.1875 199.43 51.353 199.137 51.6471C198.844 51.9412 198.679 52.34 198.678 52.756V74.1543C198.679 74.5703 198.844 74.969 199.137 75.2632C199.43 75.5573 199.827 75.7228 200.242 75.7233ZM206.877 51.7677C207.138 51.768 207.388 51.8722 207.573 52.0575C207.757 52.2428 207.861 52.494 207.862 52.756V74.1543C207.861 74.4163 207.757 74.6675 207.573 74.8528C207.388 75.0381 207.138 75.1423 206.877 75.1426H200.242C199.981 75.1423 199.73 75.0381 199.546 74.8528C199.361 74.6675 199.257 74.4163 199.257 74.1543V52.756C199.257 52.494 199.361 52.2428 199.546 52.0575C199.73 51.8722 199.981 51.768 200.242 51.7677L206.877 51.7677Z" fill="#3F3D56"/>
<path d="M186.723 75.7233H192.845C193.328 75.7227 193.79 75.5302 194.131 75.1878C194.473 74.8455 194.664 74.3814 194.665 73.8973V42.4174C194.664 41.9333 194.473 41.4691 194.131 41.1268C193.79 40.7845 193.328 40.5919 192.845 40.5914H186.723C186.24 40.5919 185.778 40.7845 185.436 41.1268C185.095 41.4691 184.903 41.9333 184.903 42.4174V73.8973C184.903 74.3814 185.095 74.8455 185.436 75.1878C185.778 75.5302 186.24 75.7227 186.723 75.7233ZM192.845 41.1721C193.174 41.1724 193.49 41.3038 193.722 41.5372C193.955 41.7707 194.086 42.0872 194.086 42.4174V73.8973C194.086 74.2274 193.955 74.544 193.722 74.7774C193.49 75.0109 193.174 75.1422 192.845 75.1426H186.723C186.394 75.1422 186.078 75.0109 185.846 74.7774C185.613 74.544 185.482 74.2274 185.482 73.8973V42.4174C185.482 42.0872 185.613 41.7707 185.846 41.5372C186.078 41.3038 186.394 41.1724 186.723 41.1721H192.845Z" fill="#3F3D56"/>
<path d="M214.579 64.722H220.089V73.7054H214.579V64.722Z" fill="#6C63FF"/>
<path d="M200.804 53.3201H206.314V73.7053H200.804V53.3201Z" fill="#6C63FF"/>
<path d="M187.029 42.7245H192.539V73.7054H187.029V42.7245Z" fill="#6C63FF"/>
<path d="M17.7681 42.3335H56.2575C56.2955 42.3335 56.3331 42.326 56.3682 42.3114C56.4034 42.2968 56.4353 42.2754 56.4621 42.2485C56.489 42.2215 56.5103 42.1895 56.5249 42.1543C56.5394 42.119 56.5469 42.0813 56.5469 42.0431V2.84638C56.5469 2.76937 56.5164 2.69552 56.4621 2.64107C56.4079 2.58662 56.3342 2.55603 56.2575 2.55603C56.1807 2.55603 56.1071 2.58662 56.0529 2.64107C55.9986 2.69552 55.9681 2.76937 55.9681 2.84638V41.7528H17.7681C17.6913 41.7528 17.6177 41.7834 17.5634 41.8378C17.5092 41.8923 17.4787 41.9661 17.4787 42.0431C17.4787 42.1201 17.5092 42.194 17.5634 42.2484C17.6177 42.3029 17.6913 42.3335 17.7681 42.3335Z" fill="#3F3D56"/>
<path d="M180.986 79.7881H226.711C226.749 79.7881 226.786 79.7806 226.821 79.766C226.856 79.7514 226.888 79.7301 226.915 79.7031C226.942 79.6761 226.963 79.6441 226.978 79.6089C226.993 79.5737 227 79.5359 227 79.4978V33.9134C227 33.8364 226.97 33.7625 226.915 33.7081C226.861 33.6536 226.787 33.623 226.711 33.623C226.634 33.623 226.56 33.6536 226.506 33.7081C226.452 33.7625 226.421 33.8364 226.421 33.9134V79.2074H180.986C180.91 79.2074 180.836 79.238 180.782 79.2925C180.727 79.3469 180.697 79.4208 180.697 79.4978C180.697 79.5748 180.727 79.6486 180.782 79.7031C180.836 79.7575 180.91 79.7881 180.986 79.7881Z" fill="#3F3D56"/>
<path d="M42.9747 38.6946H50.3214C50.6416 38.6943 50.9487 38.5665 51.1751 38.3394C51.4016 38.1122 51.5289 37.8042 51.5293 37.4829V26.8873C51.5289 26.566 51.4016 26.258 51.1751 26.0308C50.9487 25.8036 50.6416 25.6759 50.3214 25.6755H42.9747C42.6545 25.6759 42.3475 25.8037 42.1211 26.0309C41.8947 26.258 41.7674 26.566 41.7671 26.8873V37.4829C41.7674 37.8042 41.8947 38.1121 42.1211 38.3393C42.3475 38.5665 42.6545 38.6942 42.9747 38.6946ZM50.3214 26.2562C50.4882 26.2564 50.6481 26.323 50.766 26.4413C50.8839 26.5596 50.9503 26.7199 50.9505 26.8873V37.4829C50.9503 37.6502 50.8839 37.8106 50.766 37.9289C50.6481 38.0472 50.4882 38.1137 50.3214 38.1139H42.9747C42.8079 38.1137 42.6481 38.0472 42.5302 37.9289C42.4123 37.8106 42.346 37.6502 42.3458 37.4829V26.8873C42.346 26.72 42.4123 26.5596 42.5302 26.4413C42.6481 26.323 42.8079 26.2564 42.9747 26.2562H50.3214Z" fill="#3F3D56"/>
<path d="M27.9293 38.6946H34.6913C35.089 38.6941 35.4703 38.5354 35.7516 38.2532C36.0328 37.9711 36.191 37.5885 36.1914 37.1894V17.9977C36.191 17.5986 36.0328 17.2161 35.7516 16.9339C35.4703 16.6518 35.089 16.4931 34.6913 16.4926H27.9293C27.5316 16.4931 27.1502 16.6518 26.869 16.9339C26.5878 17.2161 26.4296 17.5986 26.4292 17.9977V37.1894C26.4296 37.5885 26.5878 37.9711 26.869 38.2532C27.1502 38.5354 27.5315 38.6941 27.9293 38.6946ZM34.6913 17.0733C34.9356 17.0736 35.1698 17.171 35.3425 17.3443C35.5152 17.5176 35.6124 17.7526 35.6126 17.9977V37.1894C35.6124 37.4345 35.5153 37.6695 35.3425 37.8428C35.1698 38.0162 34.9356 38.1137 34.6913 38.1139H27.9293C27.685 38.1137 27.4508 38.0162 27.2781 37.8428C27.1053 37.6695 27.0082 37.4345 27.008 37.1894V17.9977C27.0082 17.7526 27.1054 17.5176 27.2781 17.3443C27.4508 17.171 27.685 17.0736 27.9293 17.0733H34.6913Z" fill="#3F3D56"/>
<path d="M44.0256 27.794H49.5356V36.7773H44.0256V27.794Z" fill="#6C63FF"/>
<path d="M28.5553 18.903H34.0654V36.2842H28.5553V18.903Z" fill="#6C63FF"/>
<path d="M46.7075 22.5899C45.269 22.5899 44.1029 21.4199 44.1029 19.9768C44.1029 18.5336 45.269 17.3636 46.7075 17.3636C48.1459 17.3636 49.312 18.5336 49.312 19.9768C49.312 21.4199 48.1459 22.5899 46.7075 22.5899Z" fill="#6C63FF"/>
<path d="M31.3696 12.7181C29.9311 12.7181 28.765 11.5482 28.765 10.105C28.765 8.66181 29.9311 7.49188 31.3696 7.49188C32.808 7.49188 33.9741 8.66181 33.9741 10.105C33.9741 11.5482 32.808 12.7181 31.3696 12.7181Z" fill="#6C63FF"/>
</g>
<defs>
<clipPath id="clip0">
<rect width="227" height="213" fill="white" transform="matrix(-1 0 0 1 227 0)"/>
</clipPath>
</defs>
</svg>
