<svg width="147" height="143" viewBox="0 0 147 143" fill="none" xmlns="http://www.w3.org/2000/svg">
<path d="M121.797 50.448C120.396 52.466 119.048 54.5646 118 56.7742C117.44 57.9648 116.279 63.5443 114.225 62.9793C113.8 62.8582 112.877 61.6374 112.379 61.3448C110.554 60.2955 109.257 61.3852 109.983 58.0152C110.18 57.1072 111.02 56.3 110.751 55.291C110.419 54.0298 109.454 53.8886 108.313 54.1509C108.334 54.0601 108.334 53.9693 108.355 53.8684C108.417 53.5657 108.054 53.818 107.961 53.8886C107.857 53.9693 107.639 54.1812 107.369 54.4334C106.063 54.8975 104.683 55.6139 103.801 55.6744C102.723 54.9682 105.834 53.5859 106.28 53.3942C107.774 52.7686 109.35 52.3449 110.751 51.5175C111.954 50.8113 113.624 49.6106 114.007 48.2081C114.536 46.281 112.887 45.1308 110.958 45.7059C109.993 45.9884 109.205 46.846 108.51 47.4716C107.058 48.7732 105.7 49.429 103.864 49.8023C103.003 49.9738 103.044 49.5904 102.069 50.0545C101.592 50.2866 101.26 50.7305 100.856 51.0635C99.5801 52.133 94.332 55.4928 98.0451 51.3662C98.5948 50.7507 99.6838 50.3169 100.368 49.8628C101.841 48.8942 103.376 47.8348 104.216 46.2608C105.077 44.6364 105.129 42.2149 102.65 42.3663C100.856 42.4772 99.549 44.2328 98.657 45.5546C97.7236 46.9469 97.3191 47.633 96.0018 48.9043C95.4729 49.4189 94.9335 49.9234 94.4046 50.4379C93.3466 48.0568 93.6474 45.9884 95.3069 44.2429C96.9042 41.9324 98.8541 40.1163 100.856 38.1589C102.546 36.4941 104.579 34.4459 104.797 31.974C105.16 27.8978 99.4764 24.8204 98.1488 29.5323C97.8169 30.7228 98.2214 32.1455 97.9932 33.3764C97.3813 36.6555 94.8195 39.1981 92.1954 41.1656C91.8116 41.4481 90.5463 42.5378 90.204 42.558C87.3725 42.679 90.7537 38.2396 91.0337 37.493C91.3656 36.6253 91.6353 35.4851 90.847 34.7082C89.9136 33.7901 88.866 34.3248 88.1296 35.1522C87.5695 35.7777 87.4243 36.4336 87.1962 37.1903C86.9783 37.9066 86.7813 39.632 86.3768 41.2665C85.5989 42.3763 84.3232 43.8494 83.0474 44.6566C82.7155 44.5355 82.3629 44.3236 81.9687 44.021C80.5582 42.9212 80.4337 40.8932 80.2989 39.3091C79.8529 33.9313 82.8711 29.6735 83.1408 24.4976C83.2445 22.3888 82.3732 17.4449 79.0957 18.4539C76.4406 19.2711 75.3515 21.8642 74.9989 24.7902C74.9781 24.8608 74.9574 24.9213 74.9366 24.9819C74.304 27.2924 74.8226 30.3495 74.6255 32.7307C74.4181 35.1219 73.7543 42.1544 70.3938 42.558C70.2175 42.5781 69.7715 41.9627 69.4085 41.9425C68.2261 41.8719 66.6599 41.7609 65.5709 41.3169C62.0963 39.8943 63.2683 36.0602 63.5484 33.2251C63.7558 31.187 63.3617 26.2431 59.8871 27.6152C57.9683 28.372 57.5846 30.6724 57.9165 32.3876C58.2069 33.9515 60.1464 36.5546 58.1965 37.5939C57.3045 38.0681 56.5059 37.3114 55.5413 38.2901C55.1783 38.6533 54.8879 39.1779 54.8153 39.6723C54.7219 40.3282 54.9398 40.7317 55.1783 41.2968C55.4791 41.7811 55.7902 42.2654 56.1014 42.7396C55.5828 45.7967 54.1411 47.3505 51.7556 47.3909C45.408 48.5411 41.975 42.4671 39.7658 37.8158C39.5583 37.3921 38.9256 38.0378 38.7493 38.4515C37.2143 36.7363 35.3888 35.1825 33.802 33.447C31.5409 30.9852 29.3524 24.2756 24.8199 25.4056C16.9892 27.3529 26.8113 37.8966 30.0474 39.3091C32.1632 40.2373 33.7294 40.9739 35.3059 42.7093C37.1313 44.7171 39.7658 47.29 41.0622 49.6711C41.2904 50.0949 42.8669 51.1947 41.4253 51.6991C40.7407 51.9413 39.548 50.1151 39.3198 49.8326C38.7908 49.1566 38.5108 48.2989 37.7536 47.8046C36.7579 47.1487 35.9904 47.0075 35.0258 47.6633C33.0033 49.0355 33.8123 51.4974 35.5237 52.7586C37.3491 54.1106 38.9568 54.9984 40.5125 56.7137C41.083 57.3392 41.7779 57.8538 42.338 58.4592C42.5247 58.661 43.3959 58.8829 43.4374 58.9637C43.8937 59.1049 43.6448 59.458 42.6906 60.0332C42.3795 61.1531 41.7883 61.3953 40.917 60.7394C38.3448 60.245 35.0051 53.485 32.2462 56.7036C31.572 57.4906 31.6757 58.0354 32.0595 58.9233C32.4951 59.9423 33.9783 60.9715 34.8806 61.5062C35.2748 61.7383 36.229 61.93 36.5194 62.2731C37.1002 62.9591 37.2558 63.8268 35.7933 63.393C35.4096 63.282 34.8703 64.1699 34.9014 64.4524C35.2229 67.7921 39.4027 66.8537 41.9542 67.6811C41.6845 67.8627 41.446 68.0948 41.2489 68.4075C40.4192 69.7494 41.0311 69.8302 42.0579 70.5264C43.427 71.4647 44.3294 71.2124 42.8669 72.7662C41.5497 74.1687 42.172 73.5633 40.1703 73.079C38.7908 72.7461 37.4736 72.7158 36.0734 72.9479C34.2998 73.2304 31.9039 73.6945 30.4933 74.8144C27.7759 76.9736 30.5971 78.9613 33.2211 77.8817C34.9325 77.1754 36.5816 75.7528 38.5834 76.0655C40.8341 76.4086 40.7718 77.0745 39.7969 78.5779C38.7597 80.172 39.0605 79.9803 37.4321 79.8895C35.7726 79.7886 34.0613 79.5666 32.7129 80.737C31.9454 81.403 31.1157 82.6944 31.9558 83.6227C33.0241 84.8132 36.0008 83.32 37.0069 82.8659C37.4321 82.6742 39.3094 81.4736 39.7554 81.6552C39.8176 82.0991 39.8799 82.533 39.9421 82.9769C40.471 83.9657 40.2221 84.672 39.1849 85.0857C38.2515 86.3368 36.5297 87.1339 35.3888 88.2235C34.8391 88.7482 33.8434 89.5453 33.8953 90.413C33.999 92.2089 36.0423 91.7852 37.2247 91.432C38.7804 90.9679 40.0665 88.395 42.0787 89.858C43.956 91.2201 42.7528 91.9264 41.7053 93.571C40.2532 95.8513 39.382 96.0531 37.1521 97.2335C35.6585 98.0205 30.1822 102.107 32.827 104.397C33.9264 105.346 36.6024 102.803 37.1417 102.329C38.7908 100.856 40.1495 98.8782 42.3795 98.1719C44.4538 97.506 44.962 98.7672 46.7045 98.8681C47.2024 98.8983 47.918 98.5654 48.5818 98.4039C49.2975 99.312 49.0693 100.361 48.3848 101.451C47.3994 102.531 46.3104 103.63 46.0096 103.994C45.6258 104.458 45.2421 104.912 44.8791 105.366C44.2464 106.012 43.6863 106.617 43.3544 107.131C43.1159 107.505 42.7528 108.13 42.535 108.776C42.1202 109.543 41.7675 110.36 41.5186 111.248C41.4979 111.309 41.446 111.47 41.529 111.531C43.1885 112.681 44.8272 111.924 46.0303 110.542C46.8497 109.593 47.2853 108.423 47.7417 107.293C48.2707 106.012 48.5611 104.276 49.4012 103.197C49.899 102.551 50.594 101.855 51.3718 101.33C51.7245 101.33 52.0875 101.33 52.4401 101.33C52.4816 101.834 52.5335 102.339 52.575 102.833C52.5335 104.004 52.046 105.406 51.6934 106.546C50.9466 108.927 49.785 110.844 48.7789 113.084C48.3122 114.113 47.5343 116.131 49.09 116.706C50.4073 117.191 51.5897 115.607 52.0875 114.668C52.4609 113.962 52.6165 113.175 52.772 112.398C52.9069 111.722 52.938 111.036 53.0417 110.35C53.1558 109.735 53.2595 109.119 53.3736 108.504C56.1118 106.718 57.2112 106.778 56.6719 108.685C56.6615 108.786 56.7133 108.867 56.8171 108.887C59.13 109.311 58.3728 110.895 57.9994 112.62C57.9165 113.024 58.2069 112.973 58.4765 112.812C59.6693 112.065 60.1775 111.329 61.474 111.833C61.4221 111.813 61.4221 111.833 61.4533 111.874L60.6339 113.881C60.8828 113.982 61.1629 114.033 61.4429 114.033L62.812 113.175C62.9364 113.286 63.0194 113.357 63.009 113.367C63.3306 113.569 63.8077 112.913 63.9114 112.701C64.5233 111.389 65.1353 110.078 65.7472 108.776C67.1993 110.037 65.1664 113.226 67.3756 114.194C67.7282 114.346 68.1742 113.801 68.2883 113.528C69.1803 111.258 69.284 109.18 68.475 106.94C71.8251 105.991 69.9374 112.459 69.9063 114.134C69.8856 115.173 70.1034 116.666 71.4517 116.858C73.2564 117.11 73.8372 114.709 73.9202 113.528C74.0032 112.338 72.9867 107.747 75.9842 108.514C76.8969 108.746 77.6644 110.794 77.903 111.531C78.7742 114.144 77.8096 116.898 77.5711 119.521C77.2807 122.68 78.3282 128.4 82.5496 128.703C84.4684 128.844 85.91 127.26 86.0864 125.474C86.2731 123.567 85.101 122.256 83.9601 120.853C82.0206 118.462 81.2116 116.797 80.7656 113.801C80.5789 112.529 80.1226 111.046 80.1744 109.765C79.7284 108.615 80.0914 107.656 81.2738 106.889C81.7406 105.043 82.4251 104.659 83.3067 105.759C84.4891 105.931 84.7691 106.657 86.0449 106.042C86.7294 105.719 87.3828 104.972 87.6421 104.296C88.0052 103.368 87.2999 102.278 86.9265 101.32C87.8185 102.167 88.8349 102.601 90.2455 102.813C90.6396 102.874 91.0234 102.268 91.1271 101.976C91.5834 100.603 90.93 99.9779 89.6854 99.2414C89.032 98.979 88.3785 98.7066 87.7147 98.4443C88.1089 97.7078 88.503 96.9712 88.8971 96.2448C89.8202 96.0631 90.9093 97.4152 91.4694 97.9802C92.6517 99.1607 93.5748 100.694 94.5809 102.016C95.7011 103.499 97.1324 106.324 99.3727 106.304C100.617 106.294 101.8 105.467 102.111 104.266C102.412 103.096 101.717 102.087 100.96 101.229C99.3312 99.4028 92.2784 95.2459 93.523 92.7638C94.3423 92.3804 95.1721 91.9869 95.9915 91.6035C97.3709 90.2112 98.7815 90.0699 100.223 91.1697C103.21 93.5307 100.835 92.0878 101.323 92.6529C101.935 93.3591 102.536 94.247 103.636 94.1865C104.434 94.1461 105.316 93.3995 105.523 92.6428C105.855 91.4623 104.87 90.8771 104.445 89.9085C104.216 89.5251 103.978 89.1417 103.75 88.7482C104.393 88.6977 105.036 88.6372 105.668 88.5867C106.664 89.061 106.623 90.3928 107.214 91.1495C107.981 92.1383 108.407 92.7336 109.682 93.006C110.958 93.2784 112.296 92.9051 113.603 93.2179C115.231 93.6114 116.611 94.5295 117.72 95.7201C119.038 97.1326 120.386 99.7459 122.813 98.7066C125.136 97.6977 124.67 94.9331 123.56 93.2481C121.631 90.3323 118.395 88.8693 115.314 87.4365C113.727 86.6899 111.798 85.8424 111.02 84.1675C110.398 82.8256 110.45 80.5151 112.991 80.4747C113.945 80.4646 115.252 81.6653 116.113 82.0184C118.664 83.0677 122.471 80.737 119.971 78.0835C118.975 77.0241 117.679 77.125 116.331 77.0846C116.082 77.0745 114.754 77.2965 114.433 77.0947C111.01 74.9052 114.526 74.5017 115.003 73.5532C115.573 72.4434 116.455 71.9187 116.289 70.7786C119.193 69.7495 122.886 70.1228 124.742 67.2977C125.987 65.4008 125.354 61.254 122.937 60.3964C121.994 60.0634 121.475 60.4569 120.645 60.7394C119.784 61.0421 119.463 62.1318 119.733 60.5074C119.94 59.2865 121.745 57.4603 122.44 56.4211C123.798 54.3729 125.976 52.1027 126.754 49.7922C126.982 49.1061 127.46 48.2788 126.9 47.5725C125.136 45.4032 122.595 49.2877 121.797 50.448Z" fill="#EF4237"/>
<path d="M110.74 33.9818C110.771 34.0827 110.864 34.1231 111.041 34.0322C112.099 34.113 113.042 33.0334 113.364 32.0446C113.571 31.6713 113.665 31.2576 113.561 30.7834C113.188 29.1085 111.227 30.5614 110.605 31.187C110.159 31.6309 109.661 32.2666 109.775 32.9426C109.858 33.4168 110.252 33.8305 110.74 33.9818Z" fill="#EF4237"/>
<path d="M142.385 63.8873C142.603 64.0387 142.831 64.0891 143.059 64.079C143.038 64.1597 143.028 64.2304 143.059 64.2909C143.308 64.6945 143.868 64.4321 144.138 64.2102C144.542 63.8873 144.988 63.3626 144.957 62.8178C144.957 62.7371 144.926 62.6463 144.895 62.5555C144.926 62.4546 144.926 62.3638 144.822 62.3537C144.667 62.0106 144.418 61.6777 144.158 61.4961C143.775 61.2136 143.391 61.3346 143.038 61.597C142.488 62.0106 141.514 63.2819 142.385 63.8873Z" fill="#EF4237"/>
<path d="M139.097 82.8356C138.111 83.9757 137.862 86.2963 139.584 86.9521C140.248 87.2044 140.964 87.0429 141.544 86.6797C141.627 86.7806 141.793 86.7907 142.042 86.6293C143.442 85.7716 145.403 83.8849 144.127 82.1495C142.986 80.5856 140.113 81.6652 139.097 82.8356Z" fill="#EF4237"/>
<path d="M132.355 93.3894C131.701 92.8243 130.892 92.5217 130.031 92.4409C129.648 92.4107 129.077 93.1674 129.139 93.5004C129.233 94.0149 129.378 94.4992 129.554 94.9734C129.44 95.1147 129.357 95.2862 129.326 95.4476C129.202 96.1035 129.388 96.7391 129.876 97.2234C130.011 97.3546 130.208 97.3142 130.394 97.1931C130.82 97.4454 131.369 97.4958 131.857 97.284C132.23 97.1225 132.552 96.84 132.78 96.497C133.184 96.2649 133.527 95.6898 133.527 95.2862C133.506 94.6001 132.853 93.8232 132.355 93.3894Z" fill="#EF4237"/>
<path d="M87.9842 106.072C87.6834 105.82 87.0093 106.778 87.0196 107.01C87.0923 108.947 87.5071 110.754 88.3058 112.529C88.3784 112.681 88.5962 112.59 88.814 112.408C89.1044 113.165 89.3844 113.922 89.6748 114.688C89.8408 115.112 90.6913 114.012 90.6809 113.71C90.5668 110.945 90.2764 107.989 87.9842 106.072Z" fill="#EF4237"/>
<path d="M8.18356 75.6013C6.52407 76.1462 4.76086 77.9522 5.43503 79.7784C6.04697 81.4432 7.77906 81.5845 9.13777 80.8984C9.31409 80.9589 9.55265 80.9186 9.82231 80.7268C10.5276 80.2224 11.0254 79.2235 11.2744 78.4264C11.9382 76.3278 10.2787 74.9253 8.18356 75.6013Z" fill="#EF4237"/>
<path d="M2.99757 88.5766C2.21968 89.7369 1.21361 92.6225 3.15315 93.3288C4.8645 93.9443 6.34767 92.2492 6.88701 90.7459C7.46783 89.9185 7.69601 88.9197 7.11519 87.9511C6.01577 86.1047 3.89992 87.2246 2.99757 88.5766Z" fill="#EF4237"/>
<path d="M13.6703 66.8941C12.9339 67.4591 12.1456 68.5488 12.6331 69.4871C13.0999 70.3851 14.2511 70.597 15.1016 70.1227C15.1742 70.0824 15.2468 70.0219 15.3194 69.9613C15.4128 69.9008 15.5061 69.81 15.5476 69.7797C16.284 69.0734 16.7404 67.9838 16.1492 67.0555C15.5476 66.1676 14.4171 66.3089 13.6703 66.8941Z" fill="#EF4237"/>
<path d="M24.8199 79.7482C22.4032 79.5767 20.1111 80.6765 18.7109 82.5834C18.4308 82.9668 18.4205 83.6327 19.0635 83.5117C20.8578 83.1888 22.4758 82.4623 23.8968 81.3827C24.0316 81.4029 24.1976 81.3525 24.3843 81.2112C24.5502 81.08 24.7162 80.959 24.8821 80.8278C25.2348 80.5655 25.4526 79.7886 24.8199 79.7482Z" fill="#EF4237"/>
<path d="M103.19 23.8114C102.92 24.1545 102.785 24.5681 103.086 24.5681C103.677 24.5782 104.268 24.4874 104.818 24.3159C105.803 24.3563 106.799 23.872 107.629 22.6209C107.774 22.409 107.815 22.2677 107.795 22.187C108.272 21.4908 108.573 20.6635 108.614 19.7554C108.666 18.7666 108.386 17.8989 107.888 17.2027C107.774 16.5166 107.515 15.8911 106.975 15.5279C106.83 14.8014 106.27 14.2868 104.87 14.196C102.816 14.0649 101.095 14.9023 100.327 16.8193C99.3935 19.2005 101.032 22.5401 103.19 23.8114Z" fill="#EF4237"/>
</svg>
