<svg width="266" height="266" viewBox="0 0 266 266" fill="none" xmlns="http://www.w3.org/2000/svg">
<g clip-path="url(#clip0)">
<path d="M241.376 174.318C233.888 172.16 226.437 174.112 220.244 168.218C218.461 166.51 219.343 161.086 216.978 160.223C214.557 159.341 212.173 160.711 209.715 159.547C201.607 155.7 195.282 150.239 190.872 142.412C188.526 138.264 189.802 134.379 189.821 129.95C189.839 124.827 187.737 122.086 185.185 117.939C184.246 116.4 184.096 114.842 184.04 113.096C184.415 113.021 184.885 113.003 185.429 113.021C189.07 113.153 190.703 108.179 186.667 107.466C185.616 107.278 183.834 106.734 182.745 107.053C182.332 107.166 181.938 107.278 181.544 107.429C179.141 108.686 179.836 107.391 183.683 103.544C187.587 101.122 193.818 103.619 198.21 103.788C201.945 103.938 205.436 102.117 208.814 100.803C213.168 99.133 216.133 99.7148 220.356 100.109C225.442 100.578 229.721 98.2134 234.977 100.09C241.545 102.436 246.388 104.144 252.224 98.8327C256.71 94.7601 252.75 87.403 246.932 88.3226C242.165 89.0733 238.111 91.7009 233.325 92.4516C226.531 93.5214 221.464 92.9959 214.838 91.1566C210.972 90.0868 207.725 90.7437 204.047 92.1513C200.049 93.6715 196.183 94.3284 192.279 94.7225C192.579 94.441 192.561 94.2158 191.791 94.2721C190.534 94.3472 189.595 94.441 188.338 94.6287C186.348 94.8914 179.292 93.1272 182.069 92.7143C183.327 92.5266 184.828 92.6768 185.992 92.095C186.968 91.607 187.869 90.0117 187.625 88.9419C186.818 85.6388 183.909 84.5502 185.917 80.4588C186.836 78.582 189.67 75.6166 187.362 73.4583C185.917 72.107 184.472 71.863 182.482 71.8442C173.642 71.8255 176.514 64.5997 181.037 61.1089C183.252 59.401 184.603 58.4063 185.992 55.9852C188.526 51.5372 191.003 47.3519 194.1 43.2604C195.601 41.2898 197.891 38.4183 197.91 35.8095C197.947 31.7931 194.569 28.9779 190.609 30.0477C185.879 31.3427 182.426 34.8899 179.16 38.3807C173.905 43.9924 168.688 49.1348 162.006 52.9072C161.65 52.7195 161.124 52.682 160.617 52.926C152.998 56.811 158.515 45.0246 154.48 42.9601C153.11 42.2657 151.552 43.1103 150.389 43.7672C149.488 44.2739 149.225 45.6252 148.981 46.5073C148.831 47.4457 148.737 48.3841 148.7 49.3413C148.381 53.5078 144.608 55.4597 141.099 56.5107C128.505 60.2831 127.567 47.014 127.529 38.3995C127.511 35.2465 127.548 32.0934 127.191 28.9404C126.628 24.1545 122.781 21.3018 120.003 17.7171C115.893 12.462 123.363 0.544272 113.209 -2.22633e-06C108.067 -0.262755 106.941 6.38115 106.622 10.0972C106.152 15.4837 106.171 22.7657 110.413 26.6131C115.649 31.3802 110.525 33.4072 110.807 38.4183C111.107 43.4293 118.202 53.7143 112.571 57.7682C110 55.3658 107.091 52.3066 103.638 53.977C101.198 55.1594 100.391 58.5564 98.2698 53.0386C97.3877 50.7114 95.2294 50.6738 93.1086 50.8052C92.433 50.8427 91.5696 51.3307 91.701 52.119C91.9825 53.8081 92.5456 54.9717 93.4089 56.4169C95.6048 60.1329 95.6235 62.0473 93.1462 65.7821C88.6606 72.5574 83.3868 63.361 78.6384 62.4789C76.4238 62.0661 74.4344 61.991 72.1822 61.9159C67.2837 61.7845 63.7178 56.9611 60.8651 53.5078C56.5859 48.3278 51.8564 44.5742 46.6764 40.3514C42.0782 36.6165 39.2442 31.0612 35.5094 26.5193C33.4637 24.0419 30.5921 22.0713 27.9834 20.2508C24.8116 18.0737 17.1542 12.8561 13.3255 16.591C11.4675 18.4115 11.6364 20.8701 12.2557 23.1973C12.5373 24.2296 13.6821 24.6613 14.5079 25.0742C17.3606 26.4442 16.441 28.8278 17.5671 30.9486C19.2938 34.2142 23.648 35.9784 26.7259 37.7614C28.8279 38.9813 31.0426 40.708 33.595 40.0323C35.3405 39.5631 36.6542 37.2171 38.9252 38.4746C40.6143 39.413 42.1345 40.8957 43.5234 42.2282C49.1538 47.5771 55.2534 52.5319 60.4709 58.3124C64.1682 62.4039 67.1899 66.2701 71.5629 69.6859C73.1394 70.8683 74.4907 72.2571 75.6168 73.8524C77.3059 75.9544 81.5287 86.4458 73.9276 86.183C71.9195 86.108 69.9863 85.7701 67.9594 85.8264C67.4714 85.8452 66.4955 86.2581 66.533 86.8775C66.6644 89.6176 67.9219 90.7812 70.174 91.4756C69.6673 91.8135 69.4421 92.2264 70.1928 92.414C71.1875 93.9343 72.1822 95.4545 73.1769 96.9747C72.7077 96.7682 72.2197 96.5993 71.7318 96.4304C70.8872 96.2427 70.3617 96.0551 69.5547 96.224C66.3453 96.8996 65.5946 99.3207 63.2111 101.348C62.329 102.117 52.9825 105.833 55.4223 108.404C59.1384 112.308 63.5864 108.874 66.9647 106.453C68.1095 105.627 65.3882 112.027 65.4632 111.839C64.9377 113.284 64.7125 114.054 64.4498 115.442C64.0181 117.807 63.7553 120.529 62.8357 122.8C62.5542 122.968 62.3665 123.194 62.4979 123.456C63.3237 125.221 64.8627 125.727 66.6456 126.253C68.3535 126.741 70.5119 126.872 71.1875 128.824C71.9758 131.151 68.8978 134.455 67.265 135.787C66.4392 136.463 55.1783 143.163 58.4064 144.702C60.1894 145.546 62.4416 144.908 64.187 144.308C66.4955 143.482 66.2515 142.187 69.9113 142.225C71.6942 142.243 72.52 142.112 74.303 141.418C76.0672 140.704 77.8314 140.047 79.6144 139.428C81.0971 138.94 82.2044 142.9 82.4296 143.932C82.9551 146.185 80.1211 147.123 78.6572 148.005C76.086 149.544 74.9599 151.777 74.6221 154.687C74.5845 154.987 74.8285 155.193 75.1288 155.231C79.3141 155.681 82.1668 154.63 85.3949 151.928C89.7304 148.324 93.5403 149.356 98.2886 148.775C99.7713 148.587 105.571 146.354 106.171 147.968C111.314 161.781 89.9743 170.489 95.9801 184.772C97.3877 188.094 99.6962 190.796 100.653 194.362C101.648 198.135 99.5273 201.475 98.0634 204.722C93.972 213.844 92.1139 224.147 88.6418 233.55C86.4272 239.556 79.5393 265.681 91.1567 266.019C94.8353 266.131 97.1625 263.485 98.42 260.37C101.629 252.356 103.168 242.709 103.694 234.169C103.957 229.909 103.281 225.592 103.957 221.37C104.538 217.71 106.096 214.425 106.434 210.672C106.753 207.181 106.34 203.577 106.396 200.068C106.453 196.389 108.93 195.338 110.769 192.692C114.598 187.155 115.799 177.433 116.663 170.996C116.944 168.819 117.038 149.844 121.636 150.276C122.349 150.558 123.138 151.083 124.001 151.89C124.489 152.341 124.958 152.829 125.427 153.354C129.613 158.703 131.583 167.224 139.297 166.623C140.292 166.548 141.174 166.248 141.943 165.797C142.638 165.628 143.37 165.384 144.139 165.028C149.281 162.625 149.188 157.389 150.22 152.66C152.097 144.026 164.634 148.418 169.457 149.657C173.849 150.764 178.034 150.689 182.501 151.196C187.869 151.796 192.11 156.432 195.77 159.96C198.473 162.588 201.344 164.39 204.61 166.21C212.849 170.865 218.461 175.688 223.322 183.871C228.445 192.467 239.631 198.829 249.165 194.118C252.731 192.354 253.369 188.394 252.637 184.903C251.511 179.329 246.444 175.763 241.376 174.318Z" fill="#8765AC"/>
<path d="M24.8868 143.125C24.7366 143.463 24.7929 143.726 24.9431 143.914C24.6803 144.327 24.4551 144.758 24.2299 145.171C21.959 149.882 24.305 154.987 30.048 154.105C33.126 153.636 35.716 151.252 37.6678 149C39.3194 147.123 41.6279 143.764 40.4267 141.155C37.3675 134.473 27.2328 137.514 24.8868 143.125Z" fill="#8765AC"/>
<path d="M59.0824 118.577C58.6882 117.376 57.5621 117.094 56.4173 117.413C54.8783 117.826 53.8273 119.215 52.964 120.491C50.9183 121.861 49.5106 124.076 50.4866 126.365C51.425 128.505 53.0203 130.663 55.629 129.481C57.5246 128.618 58.3316 126.328 58.8008 124.47C59.2888 122.649 59.6829 120.378 59.0824 118.577Z" fill="#8765AC"/>
<path d="M75.9924 213.656C75.1478 214.219 75.5044 214.726 76.1613 214.913C73.7965 217.804 72.5954 222.064 72.9144 225.705C73.3273 230.472 78.3759 229.064 81.0598 227.15C83.9688 225.086 83.9876 219.718 83.4809 216.621C82.7864 212.436 79.3706 211.329 75.9924 213.656Z" fill="#8765AC"/>
<path d="M115.48 226.043C110.995 223.565 107.541 228.745 107.222 232.687C106.847 237.51 111.558 240.588 115.987 238.88C119.534 237.491 120.904 233.419 120.21 229.89C119.665 227.056 117.695 225.986 115.48 226.043Z" fill="#8765AC"/>
</g>
<defs>
<clipPath id="clip0">
<rect width="266" height="266" fill="white"/>
</clipPath>
</defs>
</svg>
