<svg width="317" height="266" viewBox="0 0 317 266" fill="none" xmlns="http://www.w3.org/2000/svg">
<path d="M268.941 144.349C257.125 141.624 248.927 135.634 239.601 128.328C234.057 123.983 218.883 119.566 215.711 112.919C216.228 109.442 218.695 106.036 222.359 104.979C226.329 103.828 232.037 103.546 236.007 104.955C240.4 106.529 245.051 108.502 249.82 107.751C252.544 107.304 254.682 105.002 254.283 102.137C253.39 96.0525 250.242 93.4451 244.346 94.737C238.615 96.0055 234.457 99.9049 228.232 95.7941C225.648 94.0793 223.51 94.2672 220.527 94.6666C218.789 92.2235 217.05 89.7805 215.312 87.314C216.98 84.5657 219.117 82.2401 221.725 80.3609C223.651 78.8575 225.906 77.6594 227.973 76.3675C231.967 73.854 234.504 70.9177 236.148 66.5015C238.051 61.3571 241.386 60.6523 244.722 56.9174C246.061 55.414 247.893 52.2662 247.705 50.0816C247.212 44.7728 241.48 46.7695 238.286 48.4373C235.937 49.6588 233.94 51.7964 232.46 53.9576C230.98 56.1187 229.594 58.3033 227.95 60.347C224.215 64.9746 217.919 64.9276 212.728 65.3269C208.664 65.6323 205.399 66.8538 201.828 68.78C191.117 74.5822 188.674 67.3941 186.231 59.6657C181.65 45.1721 191.54 31.5476 197.577 18.9567C199.385 15.1748 204.741 1.83216 194.946 5.80205C189.144 8.1511 187.781 12.9432 187.499 18.7688C186.982 29.5274 179.724 54.2394 165.16 52.6421C161.613 52.2662 159.217 51.538 155.74 52.5951C155.106 52.783 153.837 53.5817 154.495 54.4039C156.233 56.5885 161.143 60.9107 150.972 57.857C146.908 56.6355 143.29 53.5112 140.894 50.1051C136.36 43.6452 139.085 34.6249 135.162 27.7187C134.481 26.5207 131.803 27.5542 131.968 28.8697C132.672 34.0846 134.317 38.5008 133.683 43.5278C124.709 35.9638 125.508 22.8561 119.729 13.1546C118.038 10.3357 110.732 1.92612 107.561 8.4095C105.494 12.6143 107.397 15.4332 110.38 18.7218C115.266 24.1246 120.129 28.3294 123.441 35.0712C126.612 41.4841 127.411 49.9877 126.847 56.9878C126.635 59.7127 124.874 62.0853 124.498 64.7162C123.887 68.8975 123.911 73.0788 123.323 77.2366C122.572 77.3071 121.632 77.5185 121.256 77.9178C112.847 73.948 106.669 59.8067 96.779 64.2229C96.2622 64.4578 95.4166 65.2565 95.9804 65.8672C98.7757 68.8505 122.783 80.2434 116.981 84.1663C116.934 84.1428 116.91 84.1193 116.863 84.0958C116.323 83.767 113.575 84.2603 113.645 85.1059C113.645 85.1529 113.645 85.1999 113.645 85.2234C112.94 85.3643 111.602 85.8811 111.907 86.8207C112.635 89.0523 113.011 91.096 112.847 93.2571C112.8 93.3746 112.753 93.492 112.706 93.586C111.555 93.2806 110.404 93.1397 109.229 93.2101C106.246 92.1766 103.004 93.0222 101.031 96.4049C100.843 96.7102 101.43 96.7337 101.571 96.7572C99.1281 98.3076 96.6616 99.8815 96.4971 99.764C95.9099 99.3882 94.9233 99.5761 94.2186 99.9989C93.9132 99.9989 93.6078 100.046 93.3024 100.046C91.3527 100.093 89.403 99.9989 87.4533 99.9284C83.7418 99.7875 80.0538 99.3882 76.3658 99.0358C71.1274 98.519 65.9125 97.9083 60.6507 98.2841C57.6204 98.4955 53.7445 98.6834 51.1605 100.516C46.7678 103.616 54.4962 107.727 56.7278 109.019C61.0735 111.556 67.3924 113.412 72.3959 112.073C73.312 111.838 74.3926 111.251 74.8859 110.429C75.8255 108.855 77.8457 103.475 81.1579 106.341C82.3794 107.398 82.8962 108.432 84.6579 108.784C92.9501 110.382 101.195 106.694 109.581 109.7C114.561 111.486 115.947 116.701 116.746 121.328C118.155 129.573 113.857 133.661 106.246 135.164C99.4804 136.503 95.1347 140.99 90.2252 145.641C82.7787 152.688 69.718 153.158 64.1273 162.178C58.7244 170.893 73.9698 173.923 79.2082 169.695C82.027 167.417 83.6479 164.48 85.4801 161.403C87.7352 157.551 89.7319 156.071 93.3024 153.346C95.9804 151.326 98.3999 148.295 102.182 149.164C102.816 149.305 103.991 149.611 104.813 149.517C106.762 149.329 108.477 148.718 110.098 147.755C114.232 145.289 122.713 129.503 125.672 141.272C127.458 148.389 121.867 156.353 117.498 161.356C114.702 164.551 105.776 176.366 116.276 175.356C124.357 174.581 123.723 165.702 126.659 159.759C126.8 161.779 126.706 163.752 126.401 165.678C123.394 169.296 122.971 176.249 121.115 180.172C120.904 180.618 123.981 180.36 124.38 179.561C126.659 174.957 128.679 170.423 129.572 165.678C131.287 163.564 134.317 162.554 137.3 161.685C136.196 165.866 133.142 167.534 129.666 171.786C127.411 174.534 129.36 176.179 132.414 176.179C136.337 176.179 138.475 172.725 140.236 169.742C140.495 169.319 143.29 163.776 144.723 167.299C145.428 169.014 144.418 171.856 143.971 173.524C142.867 177.682 140.871 181.84 138.24 185.222C134.763 189.639 129.595 192.692 127.81 197.672C127.599 197.813 127.434 197.954 127.411 198.142C127.27 198.988 127.223 199.763 127.223 200.515C127.176 201.266 127.176 202.065 127.27 202.911C127.458 204.344 128.256 205.377 129.36 206.035C132.532 209.112 138.31 208.361 140.753 203.545C142.585 201.689 143.032 199.528 142.632 196.451C144.324 189.122 146.626 182.662 150.431 175.732C152.592 171.809 154.119 168.474 155.411 164.222C155.552 163.799 155.881 163.635 156.327 163.588C157.737 165.631 159.687 166.923 162.529 165.279C162.646 165.208 162.764 165.115 162.905 165.044C169.012 164.363 173.123 158.913 178.643 160.369C180.476 161.333 182.026 162.484 183.647 163.494C186.701 166.547 189.12 171.621 191.587 175.004C193.677 177.87 194.64 180.806 195.275 184.259C196.872 192.857 197.812 198.401 205.446 203.381C208.5 205.354 211.929 206.34 215.218 204.391C228.302 196.592 203.99 175.709 199.785 169.907C195.979 164.645 191.845 155.272 195.392 149.047C196.261 147.52 197.177 146.44 198.14 145.641C200.231 144.913 202.463 144.466 204.694 144.372C207.419 145.218 209.933 147.332 211.647 149.071C212.775 150.222 213.785 151.279 215.077 152.242C217.027 153.698 220.621 154.215 222.993 153.91C226.212 153.463 229.547 152.946 230.205 149.305C230.581 147.262 226.705 146.205 225.483 145.688C223.487 144.842 223.839 142.305 224.238 140.684C224.99 137.584 230.769 139.017 232.883 139.439C250.571 143.057 264.078 156.611 283.176 154.755C283.481 154.732 286.018 154.168 285.478 153.581C280.592 148.225 275.847 145.923 268.941 144.349Z" fill="#01A79D"/>
<path d="M312.75 161.004C309.978 160.792 307.207 161.661 304.458 161.215C302.415 160.886 300.465 159.195 298.82 158.044C296.918 156.705 294.78 156.024 292.713 155.014C292.126 154.732 290.787 155.108 290.129 155.624C289.095 155.883 288.132 156.564 288.72 157.057C291.351 159.265 294.052 161.309 296.894 163.235C299.619 165.115 303.8 166.36 305.844 168.944C308.17 171.856 311.928 171.903 314.747 169.319C317.448 166.876 316.697 161.286 312.75 161.004Z" fill="#01A79D"/>
<path d="M173.146 46.3701C173.874 45.8298 174.603 45.3365 175.26 44.7023C175.777 44.2325 176.106 43.5278 176.505 42.9405C176.646 42.7056 176.67 42.2828 176.458 42.0714C175.519 41.2022 174.391 40.7089 173.099 41.1552C172.582 41.3432 172.16 41.6015 171.76 41.9539C171.455 42.1183 171.196 42.3298 171.079 42.5882C170.727 42.7996 170.445 43.0814 170.374 43.5043C170.327 43.8097 170.468 44.068 170.68 44.209C170.539 44.7258 170.398 45.2426 170.374 45.7829C170.327 47.2158 172.441 46.8869 173.146 46.3701Z" fill="#01A79D"/>
<path d="M247.024 170.188C245.92 169.86 244.887 169.86 243.806 170.282C243.101 170.564 242.444 171.175 241.88 171.48C241.34 171.762 240.705 172.397 241.011 173.031C240.588 173.571 240.4 174.229 240.376 174.91C240.353 175.709 241.199 176.132 241.927 176.014C243.242 175.803 244.652 175.897 245.803 175.145C246.86 174.44 247.212 172.631 247.682 171.551C247.893 170.964 247.612 170.353 247.024 170.188Z" fill="#01A79D"/>
<path d="M117.286 185.598C116.582 185.692 115.971 185.88 115.36 186.209C115.055 186.373 114.867 186.702 114.679 186.961C114.233 187.102 113.81 187.337 113.645 187.665C113.481 188.018 113.951 188.065 114.397 188.041C114.397 188.041 114.373 188.041 114.35 188.065C111.93 189.967 110.92 192.434 112.471 195.276C112.847 195.958 114.632 195.3 115.102 195.065C118.696 193.139 121.068 189.686 118.672 185.786C118.414 185.387 117.662 185.551 117.286 185.598Z" fill="#01A79D"/>
<path d="M135.28 215.83C135.303 215.525 135.092 215.314 134.81 215.22C134.787 215.173 134.763 215.102 134.716 215.032C134.105 213.975 130.934 215.126 131.404 215.924C131.592 216.253 131.756 216.582 131.921 216.911C130.723 224.592 116.276 267.674 127.035 265.771C134.552 264.432 135.022 251.888 135.82 246.086C136.971 237.63 139.085 224.146 135.303 216.112C135.256 216.042 135.28 215.924 135.28 215.83Z" fill="#01A79D"/>
<path d="M56.6802 177.259C56.3043 177.447 55.999 177.682 55.7641 178.058C55.7406 178.105 55.6701 178.222 55.5996 178.316C55.3882 178.316 55.1768 178.34 54.9654 178.363C53.4385 178.575 52.3345 179.444 51.6297 180.759C51.5123 180.971 51.7707 181.135 51.9351 181.182C53.7674 181.699 55.4352 182.263 57.2909 181.558C58.9118 180.947 59.3816 179.35 60.1098 177.917C60.1568 177.776 60.1333 177.682 60.0158 177.588C59.2172 176.484 57.8312 176.695 56.6802 177.259Z" fill="#01A79D"/>
<path d="M42.3985 175.474C41.7172 175.756 41.1769 176.014 40.5662 176.413C39.744 176.93 40.5192 177.048 41.4353 176.954C41.4353 177.024 41.4353 177.071 41.4353 177.142C40.8246 177.118 40.0729 177.212 39.7205 177.377C27.9753 182.544 18.6261 191.612 7.13924 197.156C-0.072341 192.035 -4.65298 208.572 7.65603 209.089C12.5186 209.3 15.5253 204.344 18.0858 201.055C25.5558 191.447 36.8312 185.857 45.0529 176.954C45.1703 176.86 45.2173 176.742 45.1938 176.601C45.0059 176.202 44.818 175.826 44.6301 175.427C44.3247 174.816 42.8213 175.286 42.3985 175.474Z" fill="#01A79D"/>
<path d="M42.8919 96.4283C42.9389 96.3109 42.9154 96.2404 42.8215 96.1699C42.0698 95.8645 41.3416 95.7001 40.5899 95.6061C35.4689 93.8913 29.8782 92.2 24.6163 94.0793C24.3579 94.1732 23.2304 94.5726 23.6062 94.9954C28.6097 100.422 37.8415 103.546 42.8919 96.4283Z" fill="#01A79D"/>
<path d="M73.7346 94.4786C79.2783 95.2068 84.6341 97.2504 90.2718 96.1464C90.5068 96.0994 92.6914 95.5122 92.1746 95.0424C88.8389 92.0591 83.9529 91.5658 79.6307 91.5188C79.0669 91.5188 76.5769 92.4819 77.0702 92.7403C76.0836 92.9752 75.1205 93.2806 74.1574 93.7034C73.946 93.7739 72.9829 94.3846 73.7346 94.4786Z" fill="#01A79D"/>
<path d="M83.5071 6.36583C84.2353 7.04706 84.987 7.6813 85.8561 8.12762C86.6313 8.55045 88.3696 8.31555 88.722 7.35244C89.1213 6.27187 89.4737 5.19131 88.4401 4.36914C88.1582 4.13423 87.7119 4.04028 87.3595 3.94631C87.289 3.92282 86.8662 3.75839 87.1716 3.89933C86.9367 3.78188 87.0776 3.89933 86.9602 3.66442C86.7723 3.33556 86.3964 3.21811 85.9501 3.21811C84.8695 3.03018 83.3426 3.66442 82.8259 4.48659C82.3091 5.33225 82.8963 5.80206 83.5071 6.36583Z" fill="#01A79D"/>
<path d="M55.4129 7.72827C54.9431 6.92959 54.2384 6.31884 53.6746 5.61412C53.839 5.37922 53.886 5.12082 53.6981 4.86243C52.3122 2.84225 50.4799 1.2449 48.3188 0.117357C47.661 -0.235 44.9127 0.211317 45.3355 1.38584C46.604 5.00337 49.1879 7.49336 52.5706 9.20817C53.3457 9.6075 56.1411 8.97326 55.4129 7.72827Z" fill="#01A79D"/>
<path d="M86.4431 46.652C87.3592 47.3097 88.1109 48.0849 88.7922 48.9776C89.0271 49.2829 89.2385 49.6353 89.4499 49.9642C89.4499 50.6689 89.4499 51.3736 89.4499 52.0783C89.4499 52.877 90.2486 53.3233 91.0003 53.2293C92.1983 53.0649 93.2554 52.3837 94.1715 51.632C94.9232 50.9978 95.4165 50.1051 94.9232 49.4944H94.9467C94.4769 48.6017 93.6077 48.2024 92.6211 48.2729C92.5506 48.2729 92.4802 48.2963 92.4332 48.3198C92.3862 48.2494 92.3392 48.2024 92.2922 48.1554C91.9869 47.7091 91.6345 47.2863 91.3056 46.8634C90.6244 46.0413 89.8257 45.3131 88.9566 44.7023C87.7586 43.8097 84.8693 45.548 86.4431 46.652Z" fill="#01A79D"/>
<path d="M116.934 63.5887C116.206 62.2497 114.796 61.4745 114.068 60.1355C114.068 60.0651 113.997 60.0181 113.88 59.9946C113.528 59.8067 112.799 59.9006 112.142 60.1355C111.578 60.2765 111.061 60.5114 110.85 60.7933C110.756 60.8872 110.709 60.9577 110.756 61.0282C110.756 61.9913 110.756 62.9309 110.756 63.894C110.779 63.941 110.826 63.9645 110.85 64.0115C111.954 64.5283 112.987 64.6692 114.209 64.6927C114.467 64.6692 117.263 64.1994 116.934 63.5887Z" fill="#01A79D"/>
</svg>
