<svg width="239" height="146" viewBox="0 0 239 146" fill="none" xmlns="http://www.w3.org/2000/svg">
<path d="M24.4335 15.3684C28.4801 15.3684 31.7605 11.9281 31.7605 7.68422C31.7605 3.44034 28.4801 0 24.4335 0C20.3869 0 17.1064 3.44034 17.1064 7.68422C17.1064 11.9281 20.3869 15.3684 24.4335 15.3684Z" fill="#6C63FF"/>
<path opacity="0.2" d="M27.5265 0.725464C28.8257 1.95931 29.6594 3.64125 29.8761 5.46531C30.0927 7.28938 29.6778 9.1344 28.7069 10.6648C27.7359 12.1951 26.2735 13.3091 24.5856 13.8042C22.8976 14.2992 21.0963 14.1424 19.5093 13.3622C20.2891 14.1075 21.2133 14.6672 22.2185 15.0029C23.2238 15.3387 24.2864 15.4426 25.3336 15.3076C26.3807 15.1726 27.3876 14.8018 28.2854 14.2206C29.1832 13.6394 29.9505 12.8616 30.535 11.9404C31.1194 11.0193 31.5071 9.97647 31.6715 8.88352C31.8358 7.79057 31.773 6.67328 31.4873 5.60817C31.2016 4.54305 30.6997 3.55529 30.0161 2.71253C29.3325 1.86978 28.4832 1.19195 27.5265 0.725464Z" fill="black"/>
<path d="M212.798 23.693C222.746 23.693 230.811 20.2527 230.811 16.0088C230.811 11.7649 222.746 8.32458 212.798 8.32458C202.85 8.32458 194.786 11.7649 194.786 16.0088C194.786 20.2527 202.85 23.693 212.798 23.693Z" fill="#3F3D56"/>
<path opacity="0.2" d="M212.799 8.32458C212.18 8.32458 211.57 8.3377 210.967 8.36394C220.054 8.75552 227.147 12.0287 227.147 16.0088C227.147 19.9889 220.054 23.2621 210.967 23.6537C211.569 23.6796 212.18 23.6927 212.799 23.693C222.746 23.693 230.811 20.2526 230.811 16.0088C230.811 11.7649 222.746 8.32458 212.799 8.32458Z" fill="black"/>
<path d="M236.306 16.0088H145.94V5.76322C145.94 5.25372 145.747 4.7651 145.403 4.40483C145.06 4.04457 144.594 3.84216 144.108 3.84216H94.0402C93.5544 3.84216 93.0885 4.04457 92.745 4.40483C92.4014 4.7651 92.2085 5.25372 92.2085 5.76322V16.0088H39.6982V9.60532C39.6982 9.09583 39.5052 8.60721 39.1617 8.24694C38.8182 7.88667 38.3523 7.68427 37.8665 7.68427H11.0008C10.515 7.68427 10.0491 7.88667 9.70553 8.24694C9.36201 8.60721 9.16902 9.09583 9.16902 9.60532V16.0088H1.84201C1.60137 16.0085 1.36303 16.058 1.14065 16.1544C0.918267 16.2508 0.716212 16.3923 0.546054 16.5707C0.375896 16.7492 0.240978 16.9611 0.149038 17.1943C0.0570979 17.4275 0.00993404 17.6775 0.0102555 17.9299V144.079C0.00993404 144.331 0.0570979 144.581 0.149038 144.815C0.240978 145.048 0.375896 145.26 0.546054 145.438C0.716212 145.617 0.918267 145.758 1.14065 145.855C1.36303 145.951 1.60137 146 1.84201 146H236.306C236.547 146 236.785 145.951 237.008 145.855C237.23 145.758 237.432 145.617 237.602 145.438C237.772 145.26 237.907 145.048 237.999 144.815C238.091 144.581 238.138 144.331 238.138 144.079V17.9299C238.138 17.6775 238.091 17.4275 237.999 17.1943C237.907 16.9611 237.772 16.7492 237.602 16.5707C237.432 16.3923 237.23 16.2508 237.008 16.1544C236.785 16.058 236.547 16.0085 236.306 16.0088Z" fill="#3F3D56"/>
<path opacity="0.2" d="M236.296 136.592H1.83175C1.59111 136.592 1.35278 136.543 1.1304 136.447C0.908013 136.35 0.705949 136.209 0.535791 136.03C0.365633 135.852 0.230725 135.64 0.138784 135.407C0.046844 135.173 -0.000319863 134.923 1.6326e-06 134.671V143.636C-0.000319863 143.888 0.046844 144.138 0.138784 144.372C0.230725 144.605 0.365633 144.817 0.535791 144.995C0.705949 145.174 0.908013 145.315 1.1304 145.411C1.35278 145.508 1.59111 145.557 1.83175 145.557H236.296C236.537 145.557 236.775 145.508 236.997 145.411C237.22 145.315 237.422 145.174 237.592 144.995C237.762 144.817 237.897 144.605 237.989 144.372C238.081 144.138 238.128 143.888 238.128 143.636V134.671C238.128 134.923 238.081 135.173 237.989 135.407C237.897 135.64 237.762 135.852 237.592 136.03C237.422 136.209 237.22 136.35 236.997 136.447C236.775 136.543 236.537 136.592 236.296 136.592Z" fill="black"/>
<path opacity="0.2" d="M238.138 74.921H0.0102539V99.2543H238.138V74.921Z" fill="black"/>
<path opacity="0.2" d="M238.138 62.7544H0.0102539V87.0877H238.138V62.7544Z" fill="black"/>
<path d="M238.138 68.5176H0.0102539V92.8509H238.138V68.5176Z" fill="#6C63FF"/>
<path d="M119.074 129.351C144.702 129.351 165.478 107.562 165.478 80.6842C165.478 53.8064 144.702 32.0176 119.074 32.0176C93.4454 32.0176 72.6694 53.8064 72.6694 80.6842C72.6694 107.562 93.4454 129.351 119.074 129.351Z" fill="#6C63FF"/>
<path opacity="0.2" d="M154.818 49.6501C160.721 60.1978 162.621 72.6899 160.139 84.6401C157.657 96.5902 150.976 107.122 141.424 114.14C131.873 121.157 120.153 124.146 108.596 122.51C97.0387 120.875 86.4925 114.736 79.0562 105.315C82.2993 111.111 86.6519 116.139 91.8397 120.084C97.0275 124.029 102.938 126.803 109.199 128.234C115.46 129.664 121.936 129.719 128.218 128.396C134.5 127.072 140.453 124.397 145.701 120.541C150.949 116.686 155.379 111.731 158.711 105.991C162.043 100.251 164.206 93.8495 165.062 87.1896C165.919 80.5297 165.451 73.7559 163.687 67.2951C161.924 60.8343 158.904 54.8264 154.818 49.6501Z" fill="black"/>
<path d="M119.074 116.901C138.146 116.901 153.608 100.686 153.608 80.6842C153.608 60.6821 138.146 44.4672 119.074 44.4672C100.002 44.4672 84.5405 60.6821 84.5405 80.6842C84.5405 100.686 100.002 116.901 119.074 116.901Z" fill="#3F3D56"/>
<path d="M145.94 80.6842C145.945 84.509 145.203 88.2945 143.76 91.807C142.987 93.7015 142.014 95.4993 140.86 97.1668C138.584 100.478 135.649 103.231 132.259 105.235C128.869 107.24 125.104 108.448 121.225 108.776C117.345 109.103 113.444 108.543 109.792 107.134C106.139 105.725 102.822 103.501 100.07 100.615C97.3182 97.7284 95.197 94.2496 93.8534 90.419C92.5098 86.5883 91.9758 82.4972 92.2885 78.4288C92.6012 74.3604 93.7529 70.4118 95.6642 66.8562C97.5754 63.3007 100.2 60.2231 103.358 57.8365C104.948 56.6258 106.662 55.6055 108.468 54.7948C112.555 52.9541 117.014 52.2062 121.444 52.6182C125.875 53.0302 130.138 54.5893 133.853 57.1555C137.567 59.7217 140.615 63.2148 142.725 67.3214C144.835 71.4279 145.939 76.0195 145.94 80.6842Z" fill="white"/>
<path opacity="0.2" d="M145.653 77.8602C144.651 70.6964 141.054 64.2134 135.61 59.7605C137.969 63.6344 139.389 68.0547 139.745 72.636C140.101 77.2173 139.383 81.8204 137.654 86.0439C136.881 87.9384 135.908 89.7362 134.754 91.4037C132.64 94.4791 129.956 97.0752 126.862 99.0363C123.768 100.997 120.329 102.283 116.75 102.816C113.171 103.35 109.526 103.12 106.034 102.14C102.542 101.16 99.2747 99.4509 96.4277 97.1146C98.7839 100.993 102.01 104.207 105.824 106.477C109.638 108.746 113.924 110.001 118.307 110.133C122.69 110.264 127.037 109.268 130.969 107.231C134.9 105.194 138.296 102.178 140.86 98.4475C142.014 96.78 142.987 94.9822 143.76 93.0878C145.722 88.2935 146.378 83.022 145.653 77.8603V77.8602Z" fill="black"/>
</svg>
