<svg width="293" height="207" viewBox="0 0 293 207" fill="none" xmlns="http://www.w3.org/2000/svg">
<path d="M171.553 177.544H115.669V197.181H121.879V207H165.344V197.181H171.553V177.544Z" fill="url(#paint0_linear)"/>
<path d="M145.49 39.5395V106.8C152.18 108.806 155.11 110.858 156.756 115.228C158.198 119.155 158.443 123.42 157.46 127.486C156.405 132.001 154.465 134.411 149.182 135.811C146.191 136.621 143.054 136.731 140.013 136.133C132.713 134.653 128.876 129.682 128.876 121.438C128.876 113.548 131.587 109.361 139.042 106.871V94.2393L138.719 39.2137L83.9194 120.667C83.9194 120.667 110.148 142.578 119.742 184.872H164.324C164.324 184.872 177.747 135.772 200.147 123.686L145.49 39.5395Z" fill="url(#paint1_linear)"/>
<path d="M146.477 42.8199V105.235C150.735 105.957 154.584 108.205 157.302 111.558C160.021 114.912 161.423 119.141 161.246 123.454C161.069 127.767 159.325 131.867 156.341 134.987C153.356 138.106 149.336 140.032 145.034 140.402C140.731 140.772 136.441 139.562 132.967 136.998C129.493 134.435 127.073 130.693 126.161 126.474C125.249 122.255 125.907 117.848 128.012 114.08C130.117 110.311 133.524 107.438 137.596 106V42.8199L87.25 119.767C87.25 119.767 113.898 143.443 122.783 184.876H161.284C161.284 184.876 176.088 134.556 196.817 122.728L146.477 42.8199Z" fill="white"/>
<path d="M137.592 10.2671H19.1538V16.1861H137.592V10.2671Z" fill="#ECEFF1"/>
<path d="M270.838 10.2671H152.399V16.1861H270.838V10.2671Z" fill="#ECEFF1"/>
<path d="M164 197H123V206H164V197Z" fill="#6C63FF" fill-opacity="0.53"/>
<path d="M156.15 0.367676H133.581V22.9243H156.15V0.367676Z" fill="url(#paint2_linear)"/>
<path d="M155.359 1.38696H134.633V22.1018H155.359V1.38696Z" fill="#6C63FF"/>
<path d="M13.2319 26.45C20.5397 26.45 26.4639 20.5289 26.4639 13.225C26.4639 5.92103 20.5397 0 13.2319 0C5.92413 0 0 5.92103 0 13.225C0 20.5289 5.92413 26.45 13.2319 26.45Z" fill="url(#paint3_linear)"/>
<path d="M279.765 26.45C287.072 26.45 292.997 20.5289 292.997 13.225C292.997 5.92103 287.072 0 279.765 0C272.457 0 266.533 5.92103 266.533 13.225C266.533 20.5289 272.457 26.45 279.765 26.45Z" fill="url(#paint4_linear)"/>
<path d="M13.2319 25.0629C19.7732 25.0629 25.0761 19.7629 25.0761 13.2249C25.0761 6.687 19.7732 1.38696 13.2319 1.38696C6.69052 1.38696 1.3877 6.687 1.3877 13.2249C1.3877 19.7629 6.69052 25.0629 13.2319 25.0629Z" fill="#6C63FF"/>
<path d="M279.723 25.0629C286.264 25.0629 291.567 19.7629 291.567 13.2249C291.567 6.687 286.264 1.38696 279.723 1.38696C273.182 1.38696 267.879 6.687 267.879 13.2249C267.879 19.7629 273.182 25.0629 279.723 25.0629Z" fill="#6C63FF"/>
<path d="M170.166 178.953H116.867V196.71H170.166V178.953Z" fill="#6C63FF"/>
<defs>
<linearGradient id="paint0_linear" x1="143.611" y1="207" x2="143.611" y2="177.544" gradientUnits="userSpaceOnUse">
<stop stop-color="#808080" stop-opacity="0.25"/>
<stop offset="0.54" stop-color="#808080" stop-opacity="0.12"/>
<stop offset="1" stop-color="#808080" stop-opacity="0.1"/>
</linearGradient>
<linearGradient id="paint1_linear" x1="68213.2" y1="102331" x2="68213.2" y2="36557.3" gradientUnits="userSpaceOnUse">
<stop stop-color="#808080" stop-opacity="0.25"/>
<stop offset="0.54" stop-color="#808080" stop-opacity="0.12"/>
<stop offset="1" stop-color="#808080" stop-opacity="0.1"/>
</linearGradient>
<linearGradient id="paint2_linear" x1="10264.1" y1="1603.7" x2="10264.1" y2="26.0823" gradientUnits="userSpaceOnUse">
<stop stop-color="#808080" stop-opacity="0.25"/>
<stop offset="0.54" stop-color="#808080" stop-opacity="0.12"/>
<stop offset="1" stop-color="#808080" stop-opacity="0.1"/>
</linearGradient>
<linearGradient id="paint3_linear" x1="1085.02" y1="2169.16" x2="1085.02" y2="0" gradientUnits="userSpaceOnUse">
<stop stop-color="#808080" stop-opacity="0.25"/>
<stop offset="0.54" stop-color="#808080" stop-opacity="0.12"/>
<stop offset="1" stop-color="#808080" stop-opacity="0.1"/>
</linearGradient>
<linearGradient id="paint4_linear" x1="23207.3" y1="2169.16" x2="23207.3" y2="0" gradientUnits="userSpaceOnUse">
<stop stop-color="#808080" stop-opacity="0.25"/>
<stop offset="0.54" stop-color="#808080" stop-opacity="0.12"/>
<stop offset="1" stop-color="#808080" stop-opacity="0.1"/>
</linearGradient>
</defs>
</svg>
