<svg width="507" height="440" viewBox="0 0 507 440" fill="none" xmlns="http://www.w3.org/2000/svg">
<path d="M213.202 254.101C251.759 254.101 283.016 217.416 283.016 172.163C283.016 126.909 251.759 90.2242 213.202 90.2242C174.645 90.2242 143.388 126.909 143.388 172.163C143.388 217.416 174.645 254.101 213.202 254.101Z" fill="#6C63FF"/>
<path d="M222.331 240.235C183.539 240.235 151.98 203.194 151.98 157.666C151.98 112.137 183.539 75.0971 222.331 75.0971C261.123 75.0971 292.682 112.137 292.682 157.666C292.682 203.194 261.123 240.235 222.331 240.235ZM222.331 76.3577C208.629 76.3576 195.235 81.1263 183.843 90.0605C172.45 98.9948 163.571 111.693 158.327 126.551C153.084 141.408 151.712 157.756 154.385 173.528C157.058 189.301 163.656 203.788 173.345 215.159C183.033 226.531 195.377 234.275 208.816 237.412C222.254 240.549 236.184 238.939 248.842 232.785C261.501 226.631 272.321 216.209 279.933 202.838C287.545 189.467 291.608 173.747 291.608 157.666C291.588 136.109 284.282 115.442 271.295 100.199C258.307 84.9562 240.698 76.382 222.331 76.3576V76.3577Z" fill="#3F3D56"/>
<path d="M507 430.326H62.5503V431.936H507V430.326Z" fill="#2F2E41"/>
<path d="M211.322 304.748L245.155 227.852L254.285 234.155L215.619 307.899L211.322 304.748Z" fill="#3F3D56"/>
<path d="M191.72 321.451C191.72 321.451 197.956 327.201 198.664 314.897C198.754 312.943 199.19 311.033 199.943 309.287C200.696 307.541 201.75 305.998 203.039 304.756C205.862 302.108 209.926 300.297 214.813 303.802C219.163 306.922 220.141 311.446 219.902 315.479C219.689 318.368 218.882 321.153 217.551 323.595C216.219 326.038 214.404 328.066 212.259 329.505C207.411 332.883 199.758 335.425 191.72 327.123C191.72 327.123 186.887 320.82 191.72 321.451Z" fill="#6C63FF"/>
<path d="M251.544 139.321C258.741 139.321 264.576 132.474 264.576 124.027C264.576 115.579 258.741 108.732 251.544 108.732C244.347 108.732 238.512 115.579 238.512 124.027C238.512 132.474 244.347 139.321 251.544 139.321Z" fill="#FFB8B8"/>
<path d="M244.685 131.271C244.685 131.271 248.114 152.201 246.743 156.226C245.371 160.251 265.947 154.616 265.947 154.616C265.947 154.616 261.832 133.686 262.518 128.857C263.204 124.027 244.685 131.271 244.685 131.271Z" fill="#FFB8B8"/>
<path d="M222.051 203.721L223.423 225.455L230.231 259.59L232.339 268.925L235.769 254.436L232.339 221.431L231.174 206.572L222.051 203.721Z" fill="#FFB8B8"/>
<path d="M294.069 200.501V223.041C294.069 223.041 292.011 252.02 287.896 259.265C283.78 266.51 282.409 230.286 282.409 230.286L285.633 203.721L294.069 200.501Z" fill="#FFB8B8"/>
<path d="M233.025 270.535C233.025 270.535 229.596 275.365 232.339 324.47C235.083 373.574 230.967 408.994 239.884 408.994C239.884 408.994 237.14 419.459 244.685 420.264C252.23 421.069 255.659 421.874 256.345 419.459C257.031 417.044 258.403 405.774 256.345 405.774C256.345 405.774 256.345 408.994 257.717 396.114C259.089 383.234 259.089 322.055 262.518 314.005L273.492 343.789C273.492 343.789 273.492 357.474 275.55 363.914C277.607 370.354 281.037 407.384 281.037 407.384L280.351 413.019C280.351 413.019 296.812 416.239 297.498 413.019C298.184 409.799 298.184 404.969 297.498 403.359C296.812 401.749 296.812 401.749 298.184 398.529C299.555 395.309 299.555 392.894 298.87 390.479C298.184 388.064 298.184 335.74 298.184 335.74C298.184 335.74 296.812 272.145 288.581 268.925C280.351 265.705 233.025 270.535 233.025 270.535Z" fill="#2F2E41"/>
<path d="M241.942 413.824L236.455 425.094C236.455 425.094 227.881 421.471 229.596 430.729C244.342 431.936 254.63 430.326 254.63 430.326C254.63 430.326 258.06 431.936 258.746 429.521C259.432 427.106 257.031 418.654 254.973 418.654C252.916 418.654 241.942 413.824 241.942 413.824Z" fill="#2F2E41"/>
<path d="M281.723 410.604C281.723 410.604 276.236 425.094 278.293 425.899C280.351 426.704 298.87 429.924 300.241 430.729C301.613 431.534 308.472 432.339 309.158 427.509C309.844 422.679 305.728 421.069 305.728 421.069C305.728 421.069 298.184 419.459 296.126 411.409C294.068 403.359 281.723 410.604 281.723 410.604Z" fill="#2F2E41"/>
<path d="M267.319 152.201C267.319 152.201 248.8 148.176 244.685 152.201C240.57 156.226 223.423 164.276 223.423 168.301C223.423 172.326 232.339 211.771 232.339 211.771C232.339 211.771 227.538 271.34 232.339 272.95C237.14 274.56 245.371 269.73 254.973 275.365C264.576 281 292.011 270.535 292.011 270.535C292.011 270.535 281.723 219.016 284.466 209.356C287.21 199.696 289.267 166.691 289.267 166.691C289.267 166.691 277.607 152.201 267.319 152.201Z" fill="#8985A8"/>
<path d="M228.224 165.886L223.423 167.496C223.423 167.496 213.135 205.331 217.25 206.941C221.365 208.551 233.025 211.771 234.397 211.771C235.769 211.771 228.224 165.886 228.224 165.886Z" fill="#8985A8"/>
<path d="M278.293 161.861L289.268 166.691C289.268 166.691 303.671 198.086 300.242 202.111C296.812 206.136 281.723 210.161 281.723 210.161L278.293 161.861Z" fill="#8985A8"/>
<path d="M251.148 105.135C250.064 104.905 248.951 104.962 247.888 105.304C247.038 105.746 246.256 106.349 245.572 107.088C244.331 108.249 243.005 109.279 241.611 110.168C240.499 110.876 239.304 111.531 238.529 112.703C238.162 113.296 237.869 113.947 237.659 114.636C236.322 118.642 235.963 123.007 236.621 127.239C236.695 127.841 236.849 128.425 237.078 128.97C237.791 130.511 239.365 131.119 240.692 131.927C243.21 133.461 245.119 136.044 247.184 138.328C247.951 139.226 248.813 140.006 249.749 140.648C252.696 142.533 256.297 141.918 259.605 141.251C259.839 141.251 260.071 141.196 260.288 141.09C260.504 140.983 260.7 140.828 260.865 140.632C261.029 140.437 261.16 140.205 261.248 139.95C261.336 139.695 261.38 139.422 261.378 139.147L263.988 125.365C264.462 123.323 264.687 121.213 264.658 119.097C264.475 115.752 262.932 111.117 260.84 108.741C258.403 105.972 254.334 105.531 251.148 105.135Z" fill="#2F2E41"/>
<path d="M197.628 430.491C208.008 430.491 216.424 429.927 216.424 429.231C216.424 428.535 208.008 427.97 197.628 427.97C187.247 427.97 178.832 428.535 178.832 429.231C178.832 429.927 187.247 430.491 197.628 430.491Z" fill="#6C63FF"/>
<path d="M193.331 433.013C203.712 433.013 212.127 432.448 212.127 431.752C212.127 431.056 203.712 430.491 193.331 430.491C182.95 430.491 174.535 431.056 174.535 431.752C174.535 432.448 182.95 433.013 193.331 433.013Z" fill="#6C63FF"/>
<path d="M174.535 424.873C180.17 424.873 184.739 424.567 184.739 424.189C184.739 423.811 180.17 423.504 174.535 423.504C168.9 423.504 164.332 423.811 164.332 424.189C164.332 424.567 168.9 424.873 174.535 424.873Z" fill="#6C63FF"/>
<path d="M211.054 440C216.689 440 221.257 439.694 221.257 439.316C221.257 438.938 216.689 438.631 211.054 438.631C205.418 438.631 200.85 438.938 200.85 439.316C200.85 439.694 205.418 440 211.054 440Z" fill="#6C63FF"/>
</svg>
