<svg width="231" height="231" viewBox="0 0 231 231" fill="none" xmlns="http://www.w3.org/2000/svg">
<g clip-path="url(#clip0)">
<path d="M209.616 151.381C203.113 149.507 196.643 151.202 191.264 146.084C189.716 144.601 190.482 139.891 188.428 139.141C186.326 138.375 184.256 139.565 182.121 138.554C175.08 135.213 169.587 130.47 165.757 123.674C163.719 120.072 164.828 116.698 164.844 112.851C164.86 108.402 163.035 106.022 160.818 102.42C160.003 101.084 159.873 99.7311 159.824 98.2153C160.15 98.1501 160.557 98.1338 161.03 98.1501C164.192 98.2642 165.61 93.9451 162.106 93.3258C161.193 93.1628 159.645 92.6901 158.699 92.9672C158.341 93.065 157.999 93.1628 157.656 93.2932C155.57 94.3852 156.173 93.2606 159.514 89.9193C162.904 87.8168 168.316 89.9845 172.13 90.1312C175.373 90.2616 178.404 88.6806 181.338 87.5397C185.119 86.0892 187.695 86.5944 191.362 86.9367C195.779 87.3442 199.495 85.2905 204.058 86.9204C209.763 88.9577 213.968 90.4409 219.037 85.8284C222.932 82.2916 219.493 75.9025 214.441 76.7012C210.301 77.3531 206.78 79.6349 202.624 80.2869C196.724 81.2159 192.323 80.7595 186.57 79.1623C183.213 78.2333 180.393 78.8037 177.198 80.0261C173.727 81.3463 170.369 81.9167 166.979 82.259C167.24 82.0145 167.224 81.8189 166.555 81.8678C165.463 81.933 164.648 82.0145 163.556 82.1775C161.829 82.4057 155.701 80.8736 158.113 80.5151C159.205 80.3521 160.509 80.4825 161.519 79.9772C162.367 79.5534 163.149 78.1681 162.937 77.239C162.236 74.3705 159.71 73.4252 161.454 69.8721C162.253 68.2422 164.714 65.667 162.709 63.7927C161.454 62.6192 160.199 62.4073 158.471 62.391C150.795 62.3747 153.288 56.0998 157.216 53.0682C159.14 51.585 160.313 50.7212 161.519 48.6187C163.719 44.7559 165.871 41.1213 168.56 37.5682C169.864 35.8569 171.852 33.3632 171.869 31.0977C171.901 27.6098 168.968 25.165 165.529 26.094C161.421 27.2186 158.422 30.2991 155.586 33.3306C151.023 38.2039 146.492 42.6697 140.69 45.9457C140.38 45.7827 139.923 45.7501 139.483 45.962C132.866 49.3358 137.658 39.1003 134.154 37.3075C132.964 36.7044 131.611 37.4379 130.601 38.0083C129.818 38.4484 129.59 39.6219 129.378 40.3879C129.248 41.2028 129.166 42.0178 129.134 42.849C128.857 46.4673 125.581 48.1623 122.533 49.0751C111.597 52.3511 110.782 40.828 110.749 33.3469C110.733 30.6087 110.765 27.8706 110.456 25.1324C109.967 20.9763 106.625 18.4989 104.213 15.3859C100.644 10.8222 107.131 0.472638 98.3132 -2.12081e-05C93.8474 -0.228202 92.8694 5.5415 92.5924 8.76862C92.1849 13.4463 92.2012 19.7702 95.8847 23.1114C100.432 27.2512 95.9825 29.0115 96.227 33.3632C96.4877 37.7149 102.649 46.6466 97.759 50.1671C95.5261 48.0808 92.9998 45.4242 90.0009 46.8747C87.8821 47.9016 87.1812 50.8516 85.3395 46.0598C84.5734 44.0388 82.6991 44.0062 80.8574 44.1203C80.2706 44.1529 79.5209 44.5766 79.635 45.2612C79.8795 46.7281 80.3684 47.7386 81.1181 48.9936C83.0251 52.2207 83.0414 53.8831 80.89 57.1266C76.9946 63.0104 72.4147 55.024 68.2912 54.258C66.3679 53.8994 64.6403 53.8342 62.6844 53.7691C58.4305 53.655 55.3338 49.4662 52.8564 46.4673C49.1403 41.9689 45.0331 38.7091 40.5346 35.042C36.5415 31.7985 34.0804 26.9742 30.837 23.0299C29.0604 20.8785 26.5667 19.1671 24.3012 17.5862C21.5468 15.6955 14.897 11.1645 11.572 14.4079C9.95848 15.9889 10.1052 18.124 10.643 20.145C10.8875 21.0415 11.8817 21.4163 12.5989 21.7749C15.0762 22.9647 14.2776 25.0346 15.2555 26.8764C16.755 29.7123 20.5363 31.2444 23.2092 32.7928C25.0347 33.8522 26.9579 35.3516 29.1745 34.7649C30.6903 34.3574 31.8312 32.3201 33.8033 33.4121C35.2702 34.227 36.5904 35.5146 37.7965 36.6718C42.6861 41.3169 47.9831 45.6198 52.5141 50.6397C55.7249 54.1928 58.349 57.5503 62.1466 60.5167C63.5157 61.5435 64.6892 62.7496 65.6671 64.135C67.134 65.9604 70.8011 75.0713 64.2002 74.8431C62.4563 74.7779 60.7775 74.4846 59.0173 74.5335C58.5935 74.5498 57.746 74.9083 57.7786 75.4462C57.8927 77.8258 58.9847 78.8363 60.9405 79.4393C60.5004 79.7327 60.3048 80.0913 60.9568 80.2543C61.8206 81.5745 62.6844 82.8947 63.5483 84.2148C63.1408 84.0356 62.717 83.8889 62.2933 83.7422C61.5598 83.5792 61.1035 83.4162 60.4026 83.5629C57.6156 84.1497 56.9636 86.2522 54.8937 88.0124C54.1277 88.6807 46.011 91.9078 48.1298 94.1407C51.3569 97.5308 55.2197 94.5482 58.1534 92.4456C59.1476 91.7285 56.7843 97.2863 56.8495 97.1233C56.3932 98.3783 56.1976 99.0466 55.9694 100.253C55.5945 102.306 55.3664 104.67 54.5677 106.642C54.3233 106.788 54.1603 106.984 54.2744 107.212C54.9915 108.744 56.328 109.184 57.8764 109.641C59.3595 110.064 61.2339 110.179 61.8206 111.874C62.5051 113.895 59.8322 116.763 58.4142 117.92C57.6971 118.507 47.9179 124.326 50.7213 125.662C52.2696 126.396 54.2255 125.841 55.7412 125.32C57.746 124.603 57.5341 123.478 60.7123 123.511C62.2607 123.527 62.9778 123.413 64.5262 122.81C66.0582 122.191 67.5903 121.62 69.1387 121.082C70.4263 120.659 71.3879 124.098 71.5835 124.994C72.0398 126.95 69.5787 127.765 68.3075 128.531C66.0745 129.867 65.0966 131.807 64.8033 134.333C64.7707 134.594 64.9825 134.773 65.2433 134.806C68.8779 135.197 71.3553 134.284 74.1586 131.937C77.9236 128.808 81.2322 129.704 85.3558 129.199C86.6434 129.036 91.6796 127.096 92.2012 128.498C96.667 140.494 78.1355 148.056 83.3511 160.46C84.5734 163.345 86.5782 165.692 87.4094 168.788C88.2732 172.064 86.4315 174.965 85.1602 177.785C81.6071 185.706 79.9935 194.654 76.9783 202.82C75.0551 208.035 69.0735 230.723 79.1623 231.016C82.3568 231.114 84.3779 228.816 85.4699 226.11C88.2569 219.151 89.5934 210.773 90.0498 203.358C90.278 199.658 89.6912 195.909 90.278 192.242C90.7832 189.064 92.136 186.211 92.4294 182.952C92.7064 179.92 92.3479 176.791 92.3968 173.743C92.4457 170.549 94.5971 169.636 96.1944 167.338C99.5193 162.53 100.562 154.087 101.312 148.497C101.557 146.606 101.638 130.128 105.631 130.503C106.251 130.747 106.935 131.204 107.685 131.905C108.109 132.296 108.516 132.719 108.924 133.176C112.558 137.821 114.269 145.22 120.968 144.699C121.832 144.634 122.598 144.373 123.266 143.982C123.869 143.835 124.505 143.623 125.173 143.314C129.639 141.227 129.558 136.68 130.454 132.573C132.084 125.075 142.971 128.889 147.16 129.965C150.974 130.927 154.609 130.861 158.488 131.301C163.149 131.823 166.832 135.849 170.011 138.913C172.358 141.195 174.851 142.759 177.687 144.34C184.842 148.382 189.716 152.571 193.937 159.677C198.387 167.142 208.1 172.667 216.38 168.576C219.477 167.044 220.031 163.605 219.395 160.574C218.418 155.733 214.017 152.636 209.616 151.381Z" fill="#F1F52B"/>
<path d="M21.6119 124.293C21.4815 124.586 21.5304 124.815 21.6608 124.978C21.4326 125.336 21.2371 125.711 21.0415 126.07C19.0693 130.161 21.1067 134.594 26.094 133.828C28.767 133.42 31.0162 131.35 32.7113 129.395C34.1455 127.765 36.1503 124.847 35.1072 122.582C32.4505 116.779 23.6492 119.42 21.6119 124.293Z" fill="#F1F52B"/>
<path d="M51.3081 102.974C50.9658 101.931 49.9879 101.687 48.9937 101.964C47.6572 102.323 46.7445 103.529 45.9948 104.637C44.2182 105.827 42.9958 107.75 43.8434 109.738C44.6583 111.596 46.0437 113.471 48.3092 112.444C49.9553 111.694 50.6562 109.706 51.0636 108.092C51.4874 106.511 51.8297 104.539 51.3081 102.974Z" fill="#F1F52B"/>
<path d="M65.9928 185.543C65.2594 186.032 65.5691 186.472 66.1395 186.635C64.0859 189.145 63.0428 192.845 63.3199 196.007C63.6784 200.147 68.0628 198.924 70.3935 197.262C72.9197 195.469 72.936 190.808 72.496 188.118C71.8929 184.484 68.9266 183.522 65.9928 185.543Z" fill="#F1F52B"/>
<path d="M100.285 196.3C96.39 194.149 93.3911 198.647 93.114 202.07C92.788 206.259 96.879 208.932 100.725 207.448C103.806 206.242 104.996 202.706 104.393 199.641C103.92 197.18 102.209 196.251 100.285 196.3Z" fill="#F1F52B"/>
</g>
<defs>
<clipPath id="clip0">
<rect width="231" height="231" fill="white"/>
</clipPath>
</defs>
</svg>
